<?xml version="1.0" encoding="utf-8"?>
<!-- Generator: Adobe Illustrator 16.0.0, SVG Export Plug-In . SVG Version: 6.00 Build 0)  -->
<!DOCTYPE svg PUBLIC "-//W3C//DTD SVG 1.1//EN" "http://www.w3.org/Graphics/SVG/1.1/DTD/svg11.dtd">
<svg version="1.1" id="Layer_1" xmlns="http://www.w3.org/2000/svg" xmlns:xlink="http://www.w3.org/1999/xlink" x="0px" y="0px"
	 width="300px" height="55px" viewBox="0 122.5 300 55" enable-background="new 0 122.5 300 55" xml:space="preserve">
<path fill="#072605" d="M31.672,142.996c0-2.613-2.299-4.285-6.271-4.285h-7.108v0.104c1.568,0.522,1.359,2.718,1.359,4.076v11.29
	h0.104c0,1.358,0.209,3.554-1.358,4.076v0.104h4.913c2.195,0,4.599,0.104,6.69-0.94c1.986-0.941,3.554-2.928,3.554-5.227
	c0-2.928-2.195-4.704-4.913-5.331C30.313,146.132,31.672,144.982,31.672,142.996z M22.788,140.801l1.986-0.209
	c1.777-0.209,3.659,0.941,3.659,2.927c0,2.404-2.822,3.137-4.704,3.137h-0.94V140.801z M30.313,152.404
	c0,2.822-2.509,3.973-4.913,3.763l-2.613-0.209v-7.422l2.09-0.104C27.491,148.327,30.313,149.582,30.313,152.404z"/>
<path fill="#072605" d="M14.53,129.094c0.418-1.045-0.314-2.509-0.314-2.509s-1.149,0.731-1.359,1.882
	c-0.209,1.463,0.314,2.404,0.314,2.404S14.32,129.825,14.53,129.094z"/>
<path fill="#072605" d="M18.188,127.631c0.523-1.046,0.104-2.509,0.104-2.509s-1.254,0.522-1.672,1.567
	c-0.418,1.359-0.104,2.404-0.104,2.404S17.77,128.362,18.188,127.631z"/>
<path fill="#072605" d="M49.442,149.896c1.045-0.837,1.15-2.404,1.15-2.404s-1.672,0.104-2.718,1.149
	c-0.313,0.313-0.418,0.732-0.627,1.255c0-0.941,0-1.882-0.104-2.822c0.418-0.104,1.359-0.522,2.09-1.359
	c0.836-0.94,0.627-2.509,0.627-2.509s-1.673,0.418-2.404,1.464c-0.209,0.418-0.418,1.045-0.418,1.567
	c-0.104-0.94-0.313-1.985-0.627-2.927c0.313-0.209,1.15-0.731,1.777-1.776c0.627-1.046,0.209-2.509,0.209-2.509
	s-1.568,0.627-2.091,1.881c-0.209,0.523-0.209,1.15-0.209,1.673c-0.313-1.045-0.732-1.986-1.15-2.927
	c0.313-0.209,1.045-0.836,1.463-1.986c0.522-1.149-0.209-2.509-0.209-2.509s-1.359,0.941-1.672,2.195
	c-0.104,0.418,0,1.046,0.104,1.568c-0.523-0.941-1.045-1.882-1.672-2.718c0.209-0.313,0.836-1.046,1.045-2.195
	c0.209-1.15-0.627-2.3-0.627-2.3s-1.15,1.149-1.254,2.3c0,0.522,0.209,1.149,0.418,1.673c-0.627-0.837-1.359-1.673-2.09-2.3
	c0.209-0.313,0.627-1.15,0.627-2.3c0-1.255-1.045-2.195-1.045-2.195s-0.94,1.359-0.731,2.509c0.104,0.522,0.418,1.149,0.731,1.568
	c-3.24-2.823-6.271-3.973-7.735-4.495c-0.104-0.209-0.836-1.046-1.568-1.15c-0.732-0.104-1.777,0.314-1.777,0.314
	s0.523,0.731,1.568,1.045c0.732,0.313,1.463-0.104,1.673-0.209c0.418,0.209,1.045,0.418,1.777,0.731
	c-0.522-0.104-1.254-0.104-1.672,0c-1.15,0.418-1.882,1.777-1.882,1.777s1.254,0.522,2.3,0s1.568-1.255,1.672-1.568
	c0.836,0.418,1.672,0.837,2.718,1.568c-0.418-0.104-1.045-0.313-1.568-0.209c-1.254,0.209-2.195,1.358-2.195,1.358
	s1.254,0.731,2.3,0.418s1.777-0.94,1.986-1.254c0.836,0.627,1.672,1.254,2.613,2.091c0.104,0,0.104,0.104,0.209,0.209
	c-0.418-0.209-1.254-0.732-1.986-0.732c-1.15-0.104-2.404,0.941-2.404,0.941s1.045,0.94,2.3,0.836c1.254-0.209,2.091-0.731,2.3-0.94
	c0.836,0.731,1.568,1.672,2.3,2.613c-0.418-0.313-1.15-0.837-1.673-1.046c-1.254-0.209-2.613,0.628-2.613,0.628
	s0.941,1.149,2.091,1.149c1.254,0.104,2.09-0.313,2.404-0.522c0.627,0.94,1.254,1.986,1.777,3.136
	c-0.313-0.418-0.941-1.045-1.568-1.359c-1.15-0.522-2.718,0.105-2.718,0.105s0.731,1.358,1.881,1.567
	c1.254,0.313,2.195,0,2.509-0.104c0.418,0.94,0.732,1.882,1.045,2.822c-0.313-0.418-0.732-1.045-1.15-1.254
	c-1.045-0.523-2.718-0.209-2.718-0.209s0.522,1.463,1.672,1.881c1.15,0.522,1.986,0.418,2.404,0.313
	c0.313,1.046,0.522,2.195,0.627,3.346c-0.209-0.523-0.522-1.255-0.94-1.568c-1.045-0.94-2.822-0.836-2.822-0.836
	s0.209,1.567,1.359,2.195c1.045,0.627,1.986,0.836,2.404,0.836c0.104,0.94,0.104,1.986,0,2.927c-0.104-0.522-0.313-1.15-0.627-1.464
	c-0.941-1.149-2.613-1.358-2.613-1.358s0,1.567,0.941,2.509c0.836,0.836,1.777,1.15,2.299,1.254
	c-0.104,0.837-0.313,1.777-0.522,2.613c0-0.522-0.104-1.149-0.418-1.567c-0.732-1.149-2.404-1.673-2.404-1.673
	s-0.313,1.568,0.522,2.613c0.732,0.941,1.568,1.359,1.986,1.568c-0.313,0.94-0.627,1.986-1.045,2.822
	c0.104-0.627,0.104-1.359,0-1.882c-0.522-1.255-2.09-2.091-2.09-2.091s-0.627,1.568,0,2.719c0.522,1.149,1.463,1.776,1.777,1.985
	c-0.418,0.837-0.941,1.673-1.463,2.509c0.209-0.522,0.313-1.359,0.209-1.881c-0.209-1.255-1.672-2.51-1.672-2.51
	s-0.836,1.464-0.418,2.719c0.418,1.254,1.045,1.985,1.359,2.299c-0.627,0.836-1.254,1.568-1.881,2.195
	c0.209-0.522,0.522-1.15,0.522-1.672c0.104-1.464-1.254-2.928-1.254-2.928s-1.149,1.255-0.94,2.719
	c0.104,1.254,0.627,2.09,0.94,2.508c-0.731,0.627-1.463,1.254-2.195,1.882c0.313-0.522,0.731-1.149,0.836-1.673
	c0.418-1.463-0.627-3.136-0.627-3.136s-1.359,1.149-1.463,2.509s0.313,2.3,0.522,2.822c-0.836,0.523-1.672,1.045-2.509,1.463
	c0.418-0.418,0.941-0.939,1.15-1.567c0.732-1.358-0.104-3.24-0.104-3.24s-1.568,0.836-1.881,2.3c-0.313,1.254-0.104,2.404,0,2.822
	c-0.836,0.313-1.672,0.627-2.509,0.836c0.522-0.313,1.045-0.836,1.359-1.254c0.836-1.255,0.418-3.24,0.418-3.24
	s-1.777,0.627-2.299,1.985c-0.523,1.255-0.523,2.195-0.418,2.718c-1.15,0.209-2.195,0.418-3.136,0.836
	c-0.627,0.209-1.254,0.523-1.777,0.732c-0.523-0.209-1.15-0.523-1.777-0.732c-0.94-0.312-1.986-0.627-3.136-0.836
	c0-0.522,0-1.568-0.418-2.718c-0.523-1.358-2.3-1.985-2.3-1.985s-0.418,1.985,0.418,3.24c0.314,0.522,0.836,0.94,1.359,1.254
	c-0.836-0.209-1.672-0.522-2.508-0.836c0.104-0.523,0.313-1.568,0-2.822c-0.314-1.464-1.882-2.3-1.882-2.3s-0.836,1.882-0.104,3.24
	c0.209,0.522,0.627,1.149,1.15,1.567c-0.836-0.418-1.672-0.939-2.509-1.463c0.209-0.418,0.627-1.463,0.522-2.822
	c-0.104-1.359-1.463-2.509-1.463-2.509s-1.045,1.673-0.627,3.136c0.104,0.523,0.522,1.15,0.836,1.673
	c-0.732-0.522-1.464-1.149-2.195-1.882c0.313-0.418,0.836-1.254,0.941-2.508c0.209-1.464-0.941-2.719-0.941-2.719
	s-1.359,1.464-1.254,2.928c0,0.521,0.313,1.149,0.522,1.672c-0.627-0.731-1.359-1.463-1.881-2.195
	c0.313-0.313,1.045-1.149,1.359-2.299c0.418-1.255-0.418-2.719-0.418-2.719s-1.463,1.255-1.672,2.51
	c-0.105,0.521,0,1.358,0.209,1.881c-0.523-0.836-1.045-1.672-1.463-2.509c0.418-0.209,1.254-0.836,1.777-1.985
	c0.627-1.15,0-2.719,0-2.719s-1.568,0.836-2.091,2.091c-0.209,0.522-0.104,1.358,0,1.882c-0.418-0.941-0.731-1.882-1.045-2.822
	c0.418-0.209,1.254-0.627,1.986-1.568c0.836-1.045,0.522-2.613,0.522-2.613s-1.672,0.523-2.404,1.673
	c-0.209,0.418-0.314,1.045-0.418,1.567c-0.209-0.836-0.418-1.776-0.522-2.613c0.418-0.104,1.359-0.312,2.3-1.254
	c0.94-0.941,0.94-2.509,0.94-2.509s-1.672,0.209-2.613,1.358c-0.627,0.628-0.836,1.15-0.94,1.673c-0.104-0.94-0.104-1.986,0-2.927
	c0.418,0,1.359-0.209,2.404-0.836c1.149-0.628,1.359-2.195,1.359-2.195s-1.777-0.104-2.823,0.836
	c-0.418,0.418-0.731,1.045-0.94,1.568c0.104-1.15,0.313-2.195,0.627-3.346c0.418,0.104,1.359,0.104,2.404-0.313
	c1.15-0.418,1.672-1.881,1.672-1.881s-1.672-0.313-2.718,0.209c-0.418,0.313-0.836,0.836-1.15,1.254
	c0.314-0.94,0.627-1.882,1.045-2.822c0.313,0.104,1.254,0.313,2.509,0.104c1.15-0.209,1.881-1.567,1.881-1.567
	s-1.568-0.628-2.718-0.104c-0.627,0.209-1.254,0.94-1.568,1.358c0.523-1.149,1.15-2.195,1.777-3.136
	c0.313,0.104,1.149,0.522,2.404,0.522c1.15,0,2.091-1.149,2.091-1.149s-1.359-0.837-2.613-0.628
	c-0.523,0.104-1.254,0.628-1.672,1.046c0.731-0.941,1.463-1.882,2.299-2.613c0.209,0.104,0.941,0.731,2.3,0.94
	c1.254,0.104,2.3-0.836,2.3-0.836s-1.254-1.045-2.404-0.94c-0.732,0-1.568,0.418-1.986,0.731c0.104,0,0.104-0.104,0.209-0.209
	c0.94-0.837,1.777-1.464,2.613-2.091c0.209,0.209,0.94,0.94,1.986,1.254c1.045,0.314,2.3-0.418,2.3-0.418s-0.941-1.149-2.195-1.358
	c-0.522-0.104-1.15,0-1.568,0.209c0.941-0.627,1.881-1.15,2.718-1.568c0.209,0.313,0.731,1.046,1.672,1.568c1.045,0.522,2.3,0,2.3,0
	s-0.836-1.568-1.986-1.986c-0.418-0.104-1.149-0.104-1.672,0c0.732-0.313,1.254-0.522,1.777-0.731
	c0.209,0.104,1.045,0.418,1.672,0.209c1.045-0.313,1.568-1.045,1.568-1.045s-1.045-0.419-1.777-0.314
	c-0.732,0.104-1.463,0.941-1.568,1.15c-1.463,0.418-4.495,1.672-7.735,4.495c0.313-0.419,0.627-1.046,0.731-1.568
	c0.209-1.149-0.731-2.509-0.731-2.509s-1.045,0.94-1.045,2.195c0,1.149,0.418,1.986,0.627,2.3c-0.731,0.627-1.463,1.463-2.09,2.3
	c0.209-0.523,0.418-1.15,0.418-1.673c-0.104-1.255-1.254-2.404-1.254-2.404s-0.836,1.149-0.627,2.3
	c0.209,1.149,0.836,1.882,1.045,2.195c-0.627,0.836-1.15,1.776-1.673,2.718c0.104-0.523,0.209-1.15,0.104-1.568
	c-0.313-1.254-1.672-2.195-1.672-2.195s-0.731,1.359-0.209,2.509c0.418,1.15,1.15,1.777,1.463,1.986
	c-0.418,0.94-0.836,1.882-1.15,2.927c0-0.522,0-1.149-0.209-1.673c-0.522-1.254-2.09-1.881-2.09-1.881s-0.418,1.463,0.209,2.509
	c0.627,1.045,1.463,1.567,1.777,1.776c-0.313,0.941-0.522,1.882-0.627,2.927c-0.104-0.522-0.209-1.149-0.418-1.567
	c-0.731-1.046-2.404-1.464-2.404-1.464s-0.209,1.568,0.627,2.509c0.836,0.836,1.777,1.255,2.091,1.359
	c-0.105,1.045-0.209,2.194-0.105,3.24c-0.104-0.522-0.418-1.255-0.731-1.568C1.672,147.596,0,147.491,0,147.491s0,1.567,1.045,2.404
	c1.045,0.836,1.986,1.046,2.404,1.149c0.104,0.941,0.209,1.777,0.418,2.719c-0.209-0.419-0.523-0.941-0.836-1.15
	C1.777,151.672,0,151.881,0,151.881s0.313,1.568,1.568,2.195c1.045,0.627,1.986,0.627,2.509,0.627
	c0.209,0.941,0.522,1.883,0.836,2.823c-0.314-0.419-0.732-0.837-1.15-1.149c-1.254-0.732-3.031-0.21-3.031-0.21
	s0.627,1.568,1.881,1.986c1.15,0.418,2.3,0.313,2.718,0.209c0.418,0.94,0.941,1.776,1.463,2.613
	c-0.418-0.418-1.045-0.837-1.568-1.046c-1.254-0.521-3.031,0.314-3.031,0.314s0.94,1.568,2.299,1.777s2.404-0.105,2.718-0.209
	c0.523,0.73,1.045,1.358,1.568,1.985c-0.418-0.209-0.94-0.418-1.359-0.522c-1.359-0.209-2.927,0.836-2.927,0.836
	s1.15,1.254,2.613,1.254c1.254,0,2.195-0.418,2.613-0.627c0.627,0.627,1.15,1.15,1.777,1.673c-0.522-0.209-1.045-0.313-1.463-0.209
	c-1.359,0-2.718,1.358-2.718,1.358s1.359,1.046,2.822,0.732c1.254-0.209,2.091-0.836,2.509-1.15
	c0.732,0.523,1.463,0.941,2.195,1.359c-0.523-0.104-1.045-0.104-1.463,0c-1.359,0.313-2.509,1.986-2.509,1.986
	s1.568,0.836,2.927,0.312c1.15-0.418,1.986-1.254,2.3-1.567c0.836,0.418,1.672,0.731,2.404,0.94c-0.523,0-1.045,0-1.464,0.209
	c-1.463,0.523-2.299,2.404-2.299,2.404s1.777,0.523,3.031-0.209c1.15-0.731,1.777-1.672,2.091-2.09
	c1.881,0.312,3.345,0.836,4.599,1.358c-2.195,1.149-3.136,2.3-3.136,2.3l0.731,0.731c0,0,1.045-1.255,3.345-2.509
	c2.299,1.254,3.345,2.509,3.345,2.509l0.732-0.731c0,0-0.941-1.045-3.136-2.3c1.254-0.522,2.718-1.046,4.6-1.358
	c0.209,0.418,0.94,1.358,2.09,2.09c1.254,0.732,3.031,0.209,3.031,0.209s-0.836-1.881-2.299-2.404
	c-0.418-0.209-0.941-0.209-1.463-0.209c0.836-0.209,1.568-0.627,2.404-0.94c0.314,0.418,1.15,1.149,2.3,1.567
	c1.359,0.523,2.927-0.312,2.927-0.312s-1.15-1.673-2.509-1.986c-0.418-0.104-0.94,0-1.463,0c0.732-0.418,1.463-0.836,2.195-1.359
	c0.418,0.314,1.254,0.941,2.509,1.15c1.463,0.313,2.822-0.732,2.822-0.732s-1.359-1.358-2.822-1.463
	c-0.418,0-0.941,0.104-1.463,0.209c0.627-0.522,1.254-1.045,1.777-1.672c0.418,0.209,1.359,0.627,2.613,0.627
	c1.463,0,2.613-1.255,2.613-1.255s-1.568-1.045-3.031-0.836c-0.418,0-0.941,0.209-1.359,0.522c0.522-0.627,1.15-1.254,1.568-1.986
	c0.418,0.105,1.463,0.418,2.718,0.209c1.359-0.209,2.3-1.672,2.3-1.672s-1.777-0.836-3.032-0.314
	c-0.522,0.209-1.15,0.628-1.568,1.046c0.522-0.837,1.045-1.673,1.463-2.613c0.418,0.104,1.463,0.104,2.718-0.209
	c1.254-0.418,1.882-1.986,1.882-1.986s-1.777-0.522-3.032,0.21c-0.418,0.209-0.836,0.73-1.149,1.149
	c0.313-0.94,0.627-1.777,0.836-2.823c0.418,0,1.359,0,2.509-0.627c1.254-0.627,1.568-2.195,1.568-2.195s-1.777-0.209-2.927,0.628
	c-0.313,0.313-0.627,0.731-0.836,1.149c0.209-0.94,0.314-1.777,0.418-2.717C47.666,150.941,48.502,150.627,49.442,149.896z"/>
<path fill="#072605" d="M37.421,130.871c0,0,0.523-0.941,0.314-2.404c-0.209-1.15-1.359-1.882-1.359-1.882s-0.732,1.464-0.314,2.509
	C36.272,129.825,37.421,130.871,37.421,130.871z"/>
<path fill="#072605" d="M34.077,129.094c0,0,0.313-1.045-0.104-2.404c-0.418-1.045-1.672-1.567-1.672-1.567
	s-0.418,1.463,0.104,2.509C32.822,128.362,34.077,129.094,34.077,129.094z"/>
<path fill="#072605" d="M72.23,140.383c3.345,0,4.286-1.881,4.286-3.136c0-1.673-1.359-2.927-3.345-3.031v-0.104
	c1.777-0.313,2.718-1.464,2.718-2.822c0-1.777-1.463-2.822-3.45-2.822c-1.045,0-3.031,0.104-3.449,0.104l-2.718-0.104v0.627
	l0.836,0.209c0.627,0.104,0.836,0.209,0.836,0.836c0,0,0,1.568,0,4.286s0,4.286,0,4.286c0,0.522-0.209,0.731-0.836,0.836
	l-0.836,0.209v0.627l2.508-0.104C69.408,140.278,71.812,140.383,72.23,140.383z M69.93,129.303c0.418,0,0.836-0.104,1.673-0.104
	c1.672,0,2.508,0.836,2.508,2.3c0,1.254-0.627,2.404-2.613,2.404c-0.836,0-1.568-0.209-1.568-0.209V129.303z M71.289,134.529
	c2.509,0,3.345,0.94,3.345,2.613c0,1.568-1.045,2.509-2.613,2.509c-1.359,0-1.986-0.209-1.986-1.254c0,0,0-2.3,0-3.868H71.289
	L71.289,134.529z"/>
<path fill="#072605" d="M78.188,138.502c0,1.149,0.941,2.09,2.3,2.09c1.254,0,1.986-0.836,2.195-1.254
	c0.104,0.836,0.731,1.254,1.568,1.254c0.731,0,1.359-0.418,1.672-0.94l-0.209-0.313c-0.104,0.104-0.418,0.313-0.732,0.313
	c-0.418,0-0.731-0.313-0.731-0.94c0-0.837,0.104-2.718,0.104-3.868c0-1.881-1.045-2.613-2.718-2.613c-1.882,0-3.24,0.732-3.24,1.673
	c0,0.731,0.627,1.149,1.254,1.254l0.523-0.313v-1.463c0-0.523,0.522-0.628,1.045-0.628c1.254,0,1.463,0.941,1.463,1.986v1.046
	C80.383,135.889,78.188,136.516,78.188,138.502z M82.683,138.083c0,0.941-0.732,1.359-1.359,1.359c-0.836,0-1.359-0.522-1.359-1.359
	c0-1.463,1.672-1.672,2.718-1.881V138.083z"/>
<path fill="#072605" d="M87.7,135.261v3.659c0,0.522-0.209,0.627-0.836,0.836l-0.314,0.104v0.522l1.986-0.104l2.404,0.104v-0.522
	l-0.732-0.104c-0.627-0.104-0.836-0.313-0.836-0.836v-4.6c0.104-0.104,1.045-0.627,1.359-0.836c0.104,0,1.149,0.836,1.149,0.836
	h0.209c0.522-0.209,0.94-0.731,0.94-1.149c0-0.523-0.418-1.15-1.254-1.15c-0.94,0-1.986,1.046-2.404,1.673h-0.105l0.105-1.882
	h-0.418l-2.195,1.15v0.313l0.731,0.209C87.596,133.798,87.7,134.111,87.7,135.261z"/>
<path fill="#072605" d="M94.913,135.261v3.659c0,0.522-0.209,0.627-0.836,0.836l-0.313,0.104v0.522l2.09-0.104l2.091,0.104v-0.522
	l-0.523-0.104c-0.627-0.104-0.731-0.313-0.731-0.836v-3.45c0-1.463,0.209-2.508,1.777-2.508c0.732,0,1.15,0.313,1.359,0.731
	c0.313,0.522,0.313,1.254,0.313,2.091c0,0.94,0,2.508,0,2.718c0,0.94-0.313,1.045-0.836,1.149l-0.418,0.104v0.522l2.195-0.104
	l2.091,0.104v-0.522l-0.523-0.104c-0.627-0.104-0.836-0.313-0.836-0.836c0,0,0-2.718,0-4.182c0-1.777-0.941-2.822-2.718-2.822
	c-1.359,0-2.3,0.94-2.613,1.359h-0.104v-1.464h-0.418l-2.195,1.149v0.314l0.731,0.209C94.809,133.798,94.913,134.111,94.913,135.261
	z"/>
<path fill="#072605" d="M103.798,138.502c0,1.149,0.941,2.09,2.3,2.09c1.254,0,1.986-0.836,2.195-1.254
	c0.104,0.836,0.732,1.254,1.568,1.254c0.731,0,1.359-0.418,1.672-0.94l-0.209-0.313c-0.104,0.104-0.418,0.313-0.732,0.313
	c-0.418,0-0.731-0.313-0.731-0.94c0-0.837,0.104-2.718,0.104-3.868c0-1.881-1.045-2.613-2.718-2.613
	c-1.882,0-3.241,0.732-3.241,1.673c0,0.731,0.627,1.149,1.254,1.254l0.523-0.313v-1.463c0-0.523,0.522-0.628,1.045-0.628
	c1.254,0,1.463,0.941,1.463,1.986v1.046C105.993,135.889,103.798,136.516,103.798,138.502z M108.292,138.083
	c0,0.941-0.731,1.359-1.359,1.359c-0.836,0-1.359-0.522-1.359-1.359c0-1.463,1.673-1.672,2.718-1.881V138.083z"/>
<path fill="#072605" d="M113.31,135.261v3.659c0,0.522-0.209,0.627-0.836,0.836l-0.313,0.104v0.522l1.986-0.104l2.404,0.104v-0.522
	l-0.731-0.104c-0.627-0.104-0.836-0.313-0.836-0.836v-4.6c0.104-0.104,1.045-0.627,1.359-0.836c0.104,0,1.15,0.836,1.15,0.836h0.209
	c0.523-0.209,0.941-0.731,0.941-1.149c0-0.523-0.418-1.15-1.254-1.15c-0.941,0-1.986,1.046-2.404,1.673h-0.104l0.104-1.882h-0.418
	l-2.195,1.15v0.313l0.732,0.209C113.206,133.798,113.31,134.111,113.31,135.261z"/>
<path fill="#072605" d="M122.822,140.592c0.941,0,1.986-0.313,2.613-1.358h0.104v1.254h0.522l2.509-0.418v-0.522l-0.522-0.104
	c-0.627-0.104-0.732-0.313-0.732-1.255v-5.854c0-2.195,0-4.599,0-4.599h-0.522l-2.404,0.627v0.209l0.732,0.209
	c0.418,0.209,0.522,0.522,0.522,1.673v1.985c-0.418-0.209-1.254-0.418-1.986-0.418c-2.404,0-4.077,1.882-4.077,4.286
	C119.373,139.129,120.941,140.592,122.822,140.592z M123.659,132.752c1.045,0,1.777,0.628,1.777,1.882v3.345
	c0,0.732-0.418,1.359-1.777,1.359s-2.404-1.046-2.404-3.136C121.254,134.634,121.777,132.752,123.659,132.752z"/>
<path fill="#072605" d="M139.024,140.278c0.941,0,3.24,0.104,3.24,0.104c0.104-0.627,0.418-3.345,0.523-3.658h-0.627l-0.731,1.358
	c-0.627,1.255-1.254,1.359-2.091,1.359h-1.777c-0.836,0-1.15-0.209-1.15-0.94c0-0.628-0.104-2.404-0.104-4.182
	c0-2.718,0-4.286,0-4.286c0-0.522,0.209-0.731,0.836-0.836l0.836-0.209v-0.522l-2.613,0.104l-2.718-0.104v0.627l0.836,0.209
	c0.627,0.104,0.836,0.209,0.836,0.836c0,0,0,1.568,0,4.286s0,4.286,0,4.286c0,0.522-0.209,0.731-0.836,0.836l-0.836,0.209v0.627
	l2.613-0.104H139.024z"/>
<path fill="#072605" d="M145.61,130.349c0.731,0,1.254-0.523,1.254-1.255s-0.523-1.254-1.254-1.254
	c-0.732,0-1.254,0.522-1.254,1.254S144.878,130.349,145.61,130.349z"/>
<path fill="#072605" d="M147.909,140.383v-0.522l-0.522-0.104c-0.627-0.104-0.836-0.313-0.836-0.836v-4.182c0-1.672,0-2.822,0-2.822
	h-0.627l-2.3,1.15v0.313l0.732,0.209c0.418,0.209,0.522,0.522,0.522,1.672v3.659c0,0.522-0.209,0.627-0.836,0.836l-0.523,0.104
	v0.522l2.195-0.104L147.909,140.383z"/>
<path fill="#072605" d="M153.031,140.592c2.613,0,4.182-2.09,4.182-4.39c0-2.718-1.777-4.182-3.555-4.182
	c-1.045,0-2.09,0.522-2.613,1.359h-0.104c0,0,0.209-1.046,0.209-2.091v-3.658h-0.523l-2.299,0.627v0.313l0.731,0.209
	c0.314,0.104,0.418,0.418,0.418,0.836v7.944c0,1.046,0,1.986,0,2.718l0.522,0.104c0.209-0.104,0.522-0.313,0.836-0.418
	C151.045,140.174,151.986,140.592,153.031,140.592z M151.15,134.634c0-0.731,0.418-1.463,1.776-1.463s2.509,1.045,2.509,3.345
	s-0.941,3.449-2.404,3.449c-1.359,0-1.777-0.731-1.777-1.986v-3.345H151.15z"/>
<path fill="#072605" d="M161.289,138.92v-4.6c0.104-0.104,1.045-0.627,1.359-0.836c0.104,0,1.149,0.836,1.149,0.836h0.209
	c0.522-0.209,0.94-0.731,0.94-1.149c0-0.523-0.418-1.15-1.254-1.15c-0.941,0-1.986,1.046-2.404,1.673h-0.104l0.104-1.882h-0.418
	l-2.195,1.15v0.313l0.732,0.209c0.418,0.209,0.521,0.522,0.521,1.672v3.659c0,0.522-0.209,0.627-0.836,0.836l-0.313,0.104v0.522
	l1.986-0.104l2.404,0.104v-0.522l-0.731-0.104C161.498,139.651,161.289,139.442,161.289,138.92z"/>
<path fill="#072605" d="M173.311,139.233c-0.105,0.104-0.418,0.313-0.732,0.313c-0.418,0-0.731-0.313-0.731-0.94
	c0-0.837,0.104-2.718,0.104-3.868c0-1.882-1.045-2.613-2.718-2.613c-1.882,0-3.24,0.731-3.24,1.673c0,0.731,0.627,1.149,1.255,1.254
	l0.521-0.313v-1.463c0-0.523,0.523-0.628,1.046-0.628c1.255,0,1.464,0.941,1.464,1.986v1.046c-2.301,0.104-4.495,0.836-4.495,2.718
	c0,1.149,0.94,2.09,2.3,2.09c1.254,0,1.986-0.836,2.195-1.254c0.104,0.836,0.73,1.254,1.567,1.254c0.731,0,1.358-0.418,1.673-0.94
	L173.311,139.233z M170.174,138.083c0,0.941-0.731,1.359-1.358,1.359c-0.837,0-1.358-0.522-1.358-1.359
	c0-1.463,1.672-1.672,2.717-1.881V138.083z"/>
<path fill="#072605" d="M175.087,135.261v3.659c0,0.522-0.209,0.627-0.836,0.836l-0.313,0.104v0.522l1.986-0.104l2.404,0.104v-0.522
	l-0.732-0.104c-0.627-0.104-0.836-0.313-0.836-0.836v-4.6c0.104-0.104,1.045-0.627,1.359-0.836c0.104,0,1.148,0.836,1.148,0.836
	h0.21c0.522-0.209,0.94-0.731,0.94-1.149c0-0.523-0.418-1.15-1.254-1.15c-0.941,0-1.986,1.046-2.404,1.673h-0.104l0.104-1.882
	h-0.418l-2.195,1.15v0.313l0.731,0.209C175.087,133.798,175.087,134.111,175.087,135.261z"/>
<path fill="#072605" d="M184.391,140.383h0.418l-2.613,4.286l1.672,0.209l4.6-11.185c0.209-0.522,0.209-0.627,0.836-0.837
	l0.314-0.104v-0.522l-1.568,0.104l-1.672-0.104v0.522l0.418,0.104c0.418,0.105,0.836,0.21,0.836,0.523
	c0,0.104-0.105,0.418-0.209,0.627c-0.627,1.882-1.255,3.449-1.777,4.704c-0.627-1.673-1.359-3.346-1.881-5.018
	c-0.105-0.418,0-0.731,0.627-0.837l0.522-0.104v-0.522l-2.3,0.104l-1.986-0.104v0.522l0.314,0.104
	c0.521,0.21,0.627,0.21,0.836,0.837C182.613,135.993,183.764,138.711,184.391,140.383z"/>
<path fill="#072605" d="M193.38,138.502c0,1.149,0.94,2.09,2.3,2.09c1.254,0,1.986-0.836,2.195-1.254
	c0.104,0.836,0.731,1.254,1.567,1.254c0.731,0,1.358-0.418,1.673-0.94l-0.209-0.313c-0.105,0.104-0.418,0.313-0.732,0.313
	c-0.418,0-0.731-0.313-0.731-0.94c0-0.837,0.104-2.718,0.104-3.868c0-1.881-1.045-2.613-2.718-2.613c-1.882,0-3.24,0.732-3.24,1.673
	c0,0.731,0.627,1.149,1.255,1.254l0.521-0.313v-1.463c0-0.523,0.523-0.628,1.046-0.628c1.255,0,1.464,0.941,1.464,1.986v1.046
	C195.471,135.889,193.38,136.516,193.38,138.502z M197.77,138.083c0,0.941-0.731,1.359-1.358,1.359
	c-0.837,0-1.358-0.522-1.358-1.359c0-1.463,1.672-1.672,2.717-1.881V138.083z"/>
<path fill="#072605" d="M209.687,138.92c0,0,0-2.718,0-4.182c0-1.776-0.94-2.822-2.718-2.822c-1.359,0-2.3,0.94-2.613,1.359h-0.104
	v-1.464h-0.418l-2.195,1.15v0.313l0.731,0.209c0.418,0.209,0.523,0.522,0.523,1.672v3.659c0,0.522-0.209,0.627-0.837,0.836
	l-0.313,0.104v0.522l2.09-0.104l2.092,0.104v-0.522l-0.523-0.104c-0.627-0.104-0.731-0.313-0.731-0.836v-3.45
	c0-1.463,0.209-2.509,1.776-2.509c0.732,0,1.15,0.314,1.359,0.732c0.314,0.522,0.314,1.254,0.314,2.091c0,0.94,0,2.508,0,2.718
	c0,0.94-0.314,1.045-0.837,1.149l-0.418,0.104v0.522l2.194-0.104l2.092,0.104v-0.522l-0.523-0.104
	C209.896,139.547,209.687,139.442,209.687,138.92z"/>
<path fill="#072605" d="M220.871,139.547l-0.522-0.104c-0.628-0.104-0.731-0.313-0.731-1.255v-5.854c0-2.195,0-4.599,0-4.599h-0.523
	l-2.404,0.627v0.209l0.732,0.209c0.418,0.209,0.522,0.522,0.522,1.673v1.985c-0.418-0.209-1.255-0.418-1.986-0.418
	c-2.403,0-4.077,1.882-4.077,4.286c0,2.718,1.568,4.181,3.45,4.181c0.94,0,1.985-0.313,2.613-1.358h0.104v1.254h0.522l2.509-0.418
	v-0.418H220.871z M217.84,137.874c0,0.732-0.418,1.359-1.777,1.359s-2.404-1.046-2.404-3.136c0-1.464,0.523-3.346,2.404-3.346
	c1.045,0,1.777,0.628,1.777,1.882V137.874z"/>
<path fill="#072605" d="M226.934,138.711c0,0,0.418-1.15,1.15-3.241h4.076c0,0,0.836,2.3,1.254,3.241
	c0.209,0.522-0.104,0.731-0.73,0.836l-0.941,0.209v0.627l2.718-0.104l2.718,0.104v-0.627l-0.836-0.209
	c-0.523-0.104-0.627-0.313-0.836-0.836c-2.301-5.645-4.182-10.558-4.182-10.558l-1.463,0.313c0,0-2.092,5.645-3.973,10.349
	c-0.209,0.522-0.418,0.731-0.941,0.836l-0.836,0.209v0.627l1.882-0.104l2.509,0.104v-0.627l-0.941-0.209
	C226.934,139.442,226.725,139.233,226.934,138.711z M230.07,129.93l1.776,4.809h-3.554L230.07,129.93z"/>
<path fill="#072605" d="M241.359,140.592c1.149,0,2.508-0.418,3.344-1.881l-0.312-0.419c-0.314,0.628-1.255,1.15-2.091,1.15
	c-1.358,0-2.718-0.94-2.718-3.24s0.94-3.346,2.195-3.346c0.731,0,0.836,0.105,0.836,0.837v1.045l0.522,0.313
	c0.628-0.104,1.255-0.418,1.255-1.254c0-0.522-0.627-1.568-2.719-1.568c-2.404,0-4.076,1.882-4.076,4.391
	C237.596,139.338,239.582,140.592,241.359,140.592z"/>
<path fill="#072605" d="M250.244,139.233c0.104,0.836,0.731,1.254,1.568,1.254c0.73,0,1.358-0.418,1.672-0.94l-0.209-0.313
	c-0.104,0.104-0.418,0.313-0.732,0.313c-0.418,0-0.73-0.313-0.73-0.94c0-0.837,0.104-2.718,0.104-3.868
	c0-1.882-1.045-2.613-2.717-2.613c-1.883,0-3.241,0.731-3.241,1.673c0,0.731,0.628,1.149,1.255,1.254l0.522-0.313v-1.463
	c0-0.523,0.522-0.628,1.045-0.628c1.255,0,1.464,0.941,1.464,1.986v1.046c-2.3,0.104-4.495,0.836-4.495,2.718
	c0,1.149,0.94,2.09,2.3,2.09C249.303,140.592,250.035,139.756,250.244,139.233z M247.422,138.083c0-1.463,1.672-1.672,2.717-1.881
	v1.776c0,0.941-0.73,1.359-1.358,1.359C248.049,139.442,247.422,138.92,247.422,138.083z"/>
<path fill="#072605" d="M257.561,140.592c0.941,0,1.986-0.313,2.613-1.358h0.105v1.254h0.521l2.51-0.418v-0.522l-0.523-0.104
	c-0.627-0.104-0.731-0.313-0.731-1.255v-5.854c0-2.195,0-4.599,0-4.599h-0.522l-2.404,0.627v0.209l0.732,0.209
	c0.418,0.209,0.521,0.522,0.521,1.673v1.985c-0.418-0.209-1.254-0.418-1.985-0.418c-2.404,0-4.077,1.882-4.077,4.286
	C254.111,139.129,255.68,140.592,257.561,140.592z M258.397,132.752c1.045,0,1.776,0.628,1.776,1.882v3.345
	c0,0.732-0.418,1.359-1.776,1.359c-1.359,0-2.404-1.046-2.404-3.136C255.993,134.634,256.516,132.752,258.397,132.752z"/>
<path fill="#072605" d="M268.641,139.338c-1.358,0-2.717-0.94-2.717-3.24c0-0.313,0-0.418,0-0.418h5.33v-0.314
	c0-1.567-1.045-3.345-3.345-3.345c-1.882,0-3.763,1.673-3.763,4.391c0,2.927,1.777,4.181,3.658,4.181
	c1.15,0,2.509-0.418,3.346-1.881l-0.418-0.419C270.418,138.92,269.582,139.338,268.641,139.338z M267.909,132.647
	c1.149,0,1.568,0.941,1.568,2.404h-3.45C266.133,133.589,266.76,132.647,267.909,132.647z"/>
<path fill="#072605" d="M285.68,138.92c0,0,0-2.718,0-4.182c0-1.776-0.941-2.822-2.718-2.822c-1.359,0-2.3,0.836-2.613,1.359h-0.104
	c-0.418-0.837-1.15-1.359-2.404-1.359c-1.463,0-2.404,0.94-2.613,1.359h-0.104v-1.464h-0.419l-2.194,1.15v0.313l0.731,0.209
	c0.418,0.209,0.523,0.522,0.523,1.672v3.659c0,0.522-0.209,0.627-0.837,0.836l-0.313,0.104v0.522l1.986-0.104l2.09,0.104v-0.522
	l-0.521-0.104c-0.628-0.104-0.732-0.313-0.732-0.836v-3.241c0-1.776,0.313-2.612,1.777-2.612c1.672,0,1.672,1.567,1.672,2.822v1.463
	c0,1.882-0.104,2.091-0.836,2.404l-0.313,0.104v0.522l2.091-0.104l2.09,0.104v-0.522l-0.418-0.104
	c-0.627-0.104-0.836-0.313-0.836-0.836v-3.346c0-1.672,0.313-2.613,1.777-2.613c1.672,0,1.672,1.568,1.672,2.823v1.463
	c0,1.882-0.104,2.195-0.836,2.404l-0.418,0.104v0.522l2.09-0.104l2.092,0.104v-0.522l-0.523-0.104
	C285.889,139.651,285.68,139.442,285.68,138.92z"/>
<path fill="#072605" d="M289.651,130.349c0.731,0,1.255-0.523,1.255-1.255s-0.523-1.254-1.255-1.254s-1.254,0.522-1.254,1.254
	S289.024,130.349,289.651,130.349z"/>
<path fill="#072605" d="M290.697,138.92v-4.182c0-1.672,0-2.822,0-2.822h-0.627l-2.301,1.15v0.313l0.732,0.209
	c0.418,0.209,0.522,0.522,0.522,1.672v3.659c0,0.522-0.209,0.627-0.837,0.836l-0.521,0.104v0.522l2.195-0.104l2.194,0.104v-0.522
	l-0.522-0.104C290.801,139.547,290.697,139.442,290.697,138.92z"/>
<path fill="#072605" d="M299.687,138.188c-0.313,0.628-1.255,1.15-2.091,1.15c-1.359,0-2.718-0.94-2.718-3.24
	s0.94-3.346,2.195-3.346c0.731,0,0.836,0.104,0.836,0.837v1.045l0.522,0.313c0.627-0.104,1.255-0.418,1.255-1.254
	c0-0.522-0.628-1.568-2.718-1.568c-2.404,0-4.076,1.882-4.076,4.391c0,2.927,1.881,4.181,3.763,4.181
	c1.149,0,2.509-0.418,3.345-1.881L299.687,138.188z"/>
<path fill="#072605" d="M71.708,158.153v-0.627l-0.836-0.21c-0.627-0.104-0.836-0.312-0.836-0.836c0,0,0-1.672,0-4.39
	s0-4.286,0-4.286c0-0.522,0.209-0.731,0.836-0.836l0.836-0.209v-0.628l-2.718,0.209l-2.718-0.104v0.628l0.836,0.209
	c0.627,0.104,0.836,0.313,0.836,0.836c0,0,0,1.464,0,4.286c0,2.718,0,4.391,0,4.391c0,0.521-0.209,0.73-0.836,0.836l-0.836,0.209
	v0.627l2.718-0.104H71.708z"/>
<path fill="#072605" d="M78.397,157.526l-0.418,0.104v0.522l2.195-0.104l2.09,0.104v-0.522l-0.522-0.104
	c-0.627-0.104-0.836-0.313-0.836-0.837c0,0,0-2.717,0-4.181c0-1.776-0.94-2.822-2.718-2.822c-1.359,0-2.299,0.94-2.613,1.358H75.47
	v-1.463h-0.418l-2.195,1.15v0.312l0.732,0.209c0.418,0.209,0.522,0.523,0.522,1.673v3.659c0,0.521-0.209,0.627-0.836,0.836
	l-0.314,0.104v0.522l2.091-0.104l2.091,0.104v-0.522l-0.523-0.104c-0.627-0.105-0.731-0.314-0.731-0.836v-3.45
	c0-1.464,0.209-2.509,1.777-2.509c0.731,0,1.15,0.314,1.359,0.732c0.313,0.521,0.313,1.254,0.313,2.09c0,0.941,0,2.509,0,2.719
	C79.233,157.316,78.92,157.316,78.397,157.526z"/>
<path fill="#072605" d="M87.596,146.236c0.836,0,1.359,1.046,1.463,1.046c0.627,0,1.359-0.837,1.359-1.255
	c0-0.522-1.254-0.836-1.881-0.836c-2.091,0-4.181,1.254-4.286,4.809h-1.254v0.627h1.254v5.854c0,0.523-0.209,0.627-0.836,0.836
	l-0.522,0.105v0.522l2.09-0.104l2.509,0.104v-0.522H86.76c-0.627-0.105-0.732-0.314-0.732-0.836v-5.854l1.777,0.312L87.909,150
	l-1.986,0.104c0-1.464,0.104-2.404,0.418-3.031C86.655,146.551,87.073,146.236,87.596,146.236z"/>
<path fill="#072605" d="M93.136,149.791c-2.613,0-4.181,1.881-4.181,4.285c0,2.822,1.986,4.182,3.972,4.182
	c2.509,0,4.181-1.777,4.181-4.285C97.108,151.15,95.122,149.791,93.136,149.791z M93.031,157.631c-1.254,0-2.299-1.15-2.299-3.764
	c0-1.463,0.418-3.449,2.195-3.449c1.15,0,2.3,1.045,2.3,3.764C95.227,155.645,94.809,157.631,93.031,157.631z"/>
<path fill="#072605" d="M101.08,151.568h-0.104l0.104-1.882h-0.418l-2.404,1.149v0.314l0.732,0.209
	c0.418,0.209,0.522,0.521,0.522,1.672v3.658c0,0.523-0.209,0.627-0.836,0.837l-0.418,0.104v0.522l1.986-0.104l2.404,0.104v-0.522
	l-0.731-0.104c-0.627-0.104-0.836-0.313-0.836-0.837v-4.599c0.104-0.104,1.045-0.628,1.359-0.837c0.104,0,1.15,0.837,1.15,0.837
	h0.209c0.523-0.21,0.941-0.731,0.941-1.149c0-0.523-0.418-1.15-1.254-1.15C102.543,149.896,101.498,150.941,101.08,151.568z"/>
<path fill="#072605" d="M116.132,157.526l-0.418,0.104v0.522l2.09-0.104l2.091,0.104v-0.522l-0.522-0.104
	c-0.627-0.104-0.836-0.313-0.836-0.837c0,0,0-2.717,0-4.181c0-1.776-0.941-2.822-2.718-2.822c-1.359,0-2.3,0.836-2.613,1.358h-0.104
	c-0.418-0.836-1.15-1.358-2.404-1.358c-1.463,0-2.404,0.94-2.613,1.358h-0.104v-1.463h-0.313l-2.195,1.15v0.312l0.732,0.209
	c0.418,0.209,0.522,0.523,0.522,1.673v3.659c0,0.521-0.209,0.627-0.836,0.836l-0.314,0.104v0.522l1.986-0.104l2.09,0.104v-0.522
	l-0.522-0.104c-0.627-0.105-0.732-0.314-0.732-0.836v-3.241c0-1.776,0.314-2.612,1.777-2.612c1.672,0,1.672,1.567,1.672,2.822v1.463
	c0,1.881-0.104,2.09-0.836,2.404l-0.313,0.104v0.522l2.091-0.104l2.09,0.104v-0.522l-0.418-0.104
	c-0.627-0.105-0.836-0.314-0.836-0.836v-3.346c0-1.672,0.314-2.613,1.777-2.613c1.672,0,1.672,1.568,1.672,2.822v1.464
	C116.969,157.004,116.864,157.316,116.132,157.526z"/>
<path fill="#072605" d="M120.732,156.271c0,1.15,0.94,2.091,2.299,2.091c1.254,0,1.986-0.836,2.195-1.255
	c0.104,0.837,0.731,1.255,1.568,1.255c0.732,0,1.359-0.418,1.672-0.94l-0.209-0.314c-0.104,0.105-0.418,0.314-0.731,0.314
	c-0.418,0-0.732-0.314-0.732-0.941c0-0.836,0.104-2.717,0.104-3.867c0-1.882-1.045-2.613-2.718-2.613
	c-1.881,0-3.24,0.731-3.24,1.672c0,0.732,0.627,1.15,1.254,1.255l0.522-0.313v-1.463c0-0.523,0.522-0.628,1.045-0.628
	c1.254,0,1.463,0.94,1.463,1.986v1.046C122.927,153.658,120.732,154.285,120.732,156.271z M125.227,155.854
	c0,0.941-0.732,1.359-1.359,1.359c-0.836,0-1.359-0.523-1.359-1.359c0-1.463,1.672-1.672,2.718-1.881V155.854z"/>
<path fill="#072605" d="M134.739,157.004l-0.313-0.418c-0.209,0.418-0.941,0.627-1.359,0.627c-0.836,0-1.254-0.314-1.254-1.777
	v-4.494l2.508,0.209l0.105-1.046h-2.613v-2.3h-0.732c-0.104,0.731-0.522,1.673-1.254,2.091c-0.418,0.209-0.941,0.418-1.254,0.418
	v0.628h1.463v5.121c0,1.464,0.941,2.091,2.3,2.091C133.38,158.362,134.425,157.944,134.739,157.004z"/>
<path fill="#072605" d="M135.889,157.526l-0.523,0.104v0.522l2.195-0.104l2.195,0.104v-0.522l-0.523-0.104
	c-0.627-0.104-0.836-0.313-0.836-0.837v-4.181c0-1.673,0-2.822,0-2.822h-0.627l-2.3,1.149v0.314l0.732,0.209
	c0.418,0.209,0.522,0.521,0.522,1.672v3.658C136.725,157.213,136.516,157.316,135.889,157.526z"/>
<path fill="#072605" d="M138.711,146.864c0-0.732-0.523-1.255-1.254-1.255c-0.732,0-1.254,0.522-1.254,1.255
	c0,0.731,0.522,1.254,1.254,1.254C138.188,148.118,138.711,147.596,138.711,146.864z"/>
<path fill="#072605" d="M148.85,153.973c0-2.822-1.986-4.182-3.972-4.182c-2.613,0-4.181,1.881-4.181,4.285
	c0,2.822,1.986,4.182,3.972,4.182C147.178,158.362,148.85,156.586,148.85,153.973z M144.773,157.631c-1.254,0-2.3-1.15-2.3-3.764
	c0-1.463,0.418-3.449,2.195-3.449c1.15,0,2.3,1.045,2.3,3.764C146.969,155.645,146.55,157.631,144.773,157.631z"/>
<path fill="#072605" d="M158.049,156.689c0,0,0-2.717,0-4.181c0-1.776-0.941-2.822-2.718-2.822c-1.358,0-2.3,0.94-2.613,1.358
	h-0.104v-1.463h-0.418l-2.195,1.15v0.312l0.731,0.209c0.419,0.209,0.522,0.523,0.522,1.673v3.659c0,0.521-0.209,0.627-0.836,0.836
	l-0.313,0.104v0.522l2.091-0.104l2.09,0.104v-0.522l-0.521-0.104c-0.628-0.105-0.732-0.314-0.732-0.836v-3.45
	c0-1.464,0.209-2.509,1.777-2.509c0.731,0,1.149,0.314,1.358,0.732c0.313,0.521,0.313,1.254,0.313,2.09c0,0.941,0,2.509,0,2.719
	c0,0.939-0.313,1.045-0.836,1.148l-0.418,0.105v0.522l2.195-0.104l2.09,0.104v-0.522l-0.521-0.105
	C158.258,157.316,158.049,157.213,158.049,156.689z"/>
<path fill="#072605" d="M165.68,148.745c0-1.149,0.94-1.776,2.195-1.776c1.254,0,1.776,0.313,1.881,0.627
	c0.314,0.94,0.627,1.882,0.627,1.882h0.627c0.105-1.359,0.314-2.927,0.314-2.927c-0.209-0.105-1.882-0.523-3.346-0.523
	c-2.613,0-4.076,1.568-4.076,3.136c0,3.973,6.062,3.137,6.062,6.168c0,1.358-1.149,2.091-2.404,2.091
	c-0.94,0-2.09-0.418-2.404-1.255c-0.627-1.254-0.836-2.194-0.836-2.194l-0.731,0.104c0.104,1.777,0.104,2.928,0.104,3.45
	c0.209,0,1.882,0.627,3.764,0.627c2.404,0,4.181-1.358,4.181-3.659C171.742,150.941,165.68,151.359,165.68,148.745z"/>
<path fill="#072605" d="M177.178,149.791c-1.881,0-3.764,1.672-3.764,4.391c0,2.926,1.777,4.181,3.659,4.181
	c1.149,0,2.509-0.418,3.345-1.882L180,156.062c-0.313,0.627-1.254,1.15-2.195,1.15c-1.359,0-2.718-0.941-2.718-3.24
	c0-0.314,0-0.418,0-0.418h5.331v-0.314C180.418,151.568,179.478,149.791,177.178,149.791z M175.191,152.822
	c0.105-1.568,0.732-2.404,1.882-2.404s1.567,0.941,1.567,2.404H175.191z"/>
<path fill="#072605" d="M186.898,149.896c-0.94,0-1.985,1.046-2.404,1.673h-0.104l0.104-1.882h-0.418l-2.195,1.149v0.314
	l0.732,0.209c0.418,0.209,0.522,0.521,0.522,1.672v3.658c0,0.523-0.209,0.627-0.836,0.837l-0.313,0.104v0.522l1.986-0.104
	l2.404,0.104v-0.522l-0.732-0.104c-0.627-0.104-0.836-0.313-0.836-0.837v-4.599c0.104-0.104,1.045-0.628,1.358-0.837
	c0.104,0,1.149,0.837,1.149,0.837h0.21c0.522-0.21,0.94-0.731,0.94-1.149C188.153,150.418,187.735,149.896,186.898,149.896z"/>
<path fill="#072605" d="M194.216,150v0.522l0.419,0.104c0.627,0.209,0.939,0.314,0.73,0.836c-0.418,1.255-1.881,4.914-1.985,5.123
	l-2.091-5.123c-0.209-0.418,0-0.73,0.627-0.836l0.627-0.104V150l-2.194,0.104L188.258,150v0.522l0.313,0.104
	c0.522,0.209,0.628,0.314,0.837,0.836c1.776,3.868,2.926,6.69,2.926,6.69h1.046c0,0,1.149-2.718,2.822-6.69
	c0.209-0.521,0.313-0.627,0.837-0.836l0.312-0.104V150l-1.567,0.104L194.216,150z"/>
<path fill="#072605" d="M200.801,156.689v-4.181c0-1.673,0-2.822,0-2.822h-0.627l-2.299,1.149v0.314l0.731,0.209
	c0.418,0.209,0.522,0.521,0.522,1.672v3.658c0,0.523-0.209,0.627-0.836,0.837l-0.523,0.104v0.522l2.195-0.104l2.195,0.104v-0.522
	l-0.522-0.104C201.01,157.316,200.801,157.213,200.801,156.689z"/>
<path fill="#072605" d="M199.861,145.609c-0.732,0-1.255,0.522-1.255,1.255c0,0.731,0.522,1.254,1.255,1.254
	c0.73,0,1.254-0.522,1.254-1.254C201.22,146.236,200.592,145.609,199.861,145.609z"/>
<path fill="#072605" d="M207.7,157.107c-1.358,0-2.718-0.94-2.718-3.24c0-2.299,0.941-3.345,2.195-3.345
	c0.731,0,0.836,0.104,0.836,0.837v1.045l0.523,0.313c0.627-0.104,1.254-0.418,1.254-1.255c0-0.521-0.627-1.567-2.718-1.567
	c-2.404,0-4.077,1.882-4.077,4.39c0,2.928,1.882,4.182,3.764,4.182c1.149,0,2.508-0.418,3.345-1.881l-0.313-0.419
	C209.478,156.689,208.641,157.107,207.7,157.107z"/>
<path fill="#072605" d="M215.018,149.791c-1.882,0-3.764,1.672-3.764,4.391c0,2.926,1.777,4.181,3.659,4.181
	c1.149,0,2.509-0.418,3.345-1.882l-0.418-0.418c-0.313,0.627-1.254,1.15-2.195,1.15c-1.359,0-2.718-0.941-2.718-3.24
	c0-0.314,0-0.418,0-0.418h5.331v-0.314C218.362,151.568,217.316,149.791,215.018,149.791z M213.136,152.822
	c0.104-1.568,0.731-2.404,1.882-2.404s1.568,0.941,1.568,2.404H213.136z"/>
<path fill="#072605" d="M221.498,151.568c0-0.836,0.627-1.15,1.464-1.15c0.522,0,1.045,0.209,1.149,0.523l0.418,1.254h0.627
	c0-0.627,0.105-1.463,0.209-2.091c-0.521-0.209-1.567-0.418-2.403-0.418c-1.568,0-2.927,0.731-2.927,2.404
	c0,2.612,4.076,2.194,4.076,4.181c0,0.732-0.418,1.255-1.463,1.255c-0.941,0-1.359-0.522-1.568-0.94l-0.418-1.255h-0.627
	c0,0.313,0,0.627,0,0.94c0,0.627,0,1.15,0,1.464c0,0,1.254,0.418,2.613,0.418c1.567,0,3.031-0.837,3.031-2.509
	C225.574,153.031,221.498,153.449,221.498,151.568z"/>
<path fill="#072605" d="M231.951,153.345v-0.418c0-1.882,0.418-5.436,2.613-7.213l-0.313-0.418
	c-2.613,1.359-4.181,4.913-4.181,7.631v0.313c0,2.822,1.567,6.271,4.181,7.631l0.313-0.313
	C232.369,158.78,231.951,155.227,231.951,153.345z"/>
<path fill="#072605" d="M242.404,151.986v-0.105c1.777-0.312,2.718-1.463,2.718-2.822c0-1.776-1.464-2.822-3.45-2.822
	c-1.254,0-3.24,0.104-3.553,0.104l-2.719-0.104v0.628l0.836,0.209c0.628,0.104,0.837,0.209,0.837,0.836c0,0,0,1.568,0,4.286
	s0,4.285,0,4.285c0,0.523-0.209,0.732-0.837,0.836l-0.836,0.21v0.627l2.509-0.104c0.522,0,2.927,0.104,3.45,0.104
	c3.449,0,4.285-1.882,4.285-3.136C245.749,153.449,244.285,152.195,242.404,151.986z M239.059,147.073
	c0.419,0,0.837-0.104,1.674-0.104c1.672,0,2.508,0.836,2.508,2.3c0,1.254-0.627,2.403-2.613,2.403c-0.836,0-1.568-0.209-1.568-0.209
	V147.073z M241.045,157.422c-1.358,0-1.986-0.209-1.986-1.255c0,0,0-2.3,0-3.867h1.255c2.509,0,3.345,0.94,3.345,2.613
	C243.658,156.48,242.613,157.422,241.045,157.422z"/>
<path fill="#072605" d="M256.202,155.958c-0.628,1.255-1.255,1.358-2.091,1.358h-1.777c-0.836,0-1.149-0.209-1.149-0.939
	c0-0.628-0.104-2.404-0.104-4.182c0-2.718,0-4.286,0-4.286c0-0.522,0.209-0.731,0.836-0.836l0.836-0.209v-0.628l-2.613,0.104
	l-2.717-0.104v0.628l0.836,0.209c0.627,0.104,0.836,0.209,0.836,0.836c0,0,0,1.568,0,4.286s0,4.285,0,4.285
	c0,0.523-0.209,0.732-0.836,0.836l-0.836,0.21v0.627l2.613-0.104h3.658c0.941,0,3.24,0.104,3.24,0.104
	c0.104-0.627,0.418-3.345,0.523-3.659h-0.628L256.202,155.958z"/>
<path fill="#072605" d="M269.059,156.48c-2.299-5.645-4.181-10.558-4.181-10.558l-1.464,0.313c0,0-2.09,5.645-3.972,10.35
	c-0.209,0.521-0.418,0.73-0.94,0.836l-0.836,0.209v0.627l1.881-0.104l2.509,0.104v-0.627l-0.94-0.209
	c-0.627-0.105-0.836-0.314-0.627-0.836c0,0,0.418-1.15,1.149-3.241h4.077c0,0,0.836,2.3,1.254,3.241
	c0.209,0.521-0.104,0.73-0.732,0.836l-0.939,0.209v0.627l2.717-0.104l2.719,0.104v-0.627l-0.837-0.209
	C269.373,157.213,269.164,157.004,269.059,156.48z M261.847,152.509l1.776-4.809l1.777,4.809H261.847z"/>
<path fill="#072605" d="M271.254,146.236v0.628l0.837,0.209c0.627,0.104,0.836,0.313,0.836,0.836c0,0,0,1.464,0,4.286
	c0,2.718,0,4.391,0,4.391c0,0.521-0.209,0.73-0.836,0.836l-0.837,0.209v0.627l2.719-0.104l2.717,0.104v-0.627l-0.836-0.209
	c-0.627-0.105-0.836-0.314-0.836-0.836c0,0,0-1.673,0-4.391s0-4.286,0-4.286c0-0.522,0.209-0.731,0.836-0.836l0.836-0.209v-0.628
	l-2.822,0.104L271.254,146.236z"/>
<path fill="#072605" d="M280.244,148.745c0-1.149,0.94-1.776,2.195-1.776c1.254,0,1.776,0.313,1.881,0.627
	c0.314,0.94,0.627,1.882,0.627,1.882h0.627c0.105-1.359,0.314-2.927,0.314-2.927c-0.209-0.105-1.882-0.523-3.346-0.523
	c-2.613,0-4.076,1.568-4.076,3.136c0,3.973,6.062,3.137,6.062,6.168c0,1.358-1.149,2.091-2.404,2.091
	c-0.94,0-2.09-0.418-2.404-1.255c-0.627-1.254-0.836-2.194-0.836-2.194l-0.731,0.104c0.104,1.777,0.104,2.928,0.104,3.45
	c0.209,0,1.881,0.627,3.764,0.627c2.404,0,4.181-1.358,4.181-3.659C286.307,150.941,280.244,151.359,280.244,148.745z"/>
<path fill="#072605" d="M287.666,145.296l-0.314,0.418c2.195,1.777,2.613,5.331,2.613,7.213v0.418c0,1.882-0.418,5.436-2.613,7.213
	l0.314,0.313c2.613-1.359,4.181-4.913,4.181-7.631v-0.313C291.847,150.209,290.279,146.655,287.666,145.296z"/>
<path fill="#072605" d="M69.199,169.442L69.199,169.442c0.836-0.209,1.254-0.731,1.254-1.358c0-0.836-0.732-1.359-1.673-1.359
	c-0.522,0-1.463,0-1.672,0h-1.254v0.313l0.418,0.104c0.313,0.105,0.418,0.105,0.418,0.418c0,0,0,0.732,0,1.986s0,1.986,0,1.986
	c0,0.209-0.104,0.313-0.418,0.418l-0.418,0.104v0.313h1.15c0.209,0,1.359,0.104,1.568,0.104c1.568,0,1.986-0.836,1.986-1.464
	C70.767,170.07,70.139,169.547,69.199,169.442z M67.631,167.143c0.209,0,0.418,0,0.836,0c0.836,0,1.15,0.418,1.15,1.045
	c0,0.628-0.313,1.15-1.254,1.15c-0.418,0-0.731-0.104-0.731-0.104V167.143z M68.571,171.951c-0.627,0-0.94-0.104-0.94-0.627
	c0,0,0-1.045,0-1.777h0.627c1.15,0,1.568,0.418,1.568,1.254C69.826,171.533,69.303,171.951,68.571,171.951z"/>
<path fill="#072605" d="M76.516,171.533c-1.15-2.613-1.986-5.018-1.986-5.018l-0.627,0.104c0,0-1.045,2.613-1.881,4.809
	c-0.104,0.209-0.209,0.313-0.418,0.418l-0.522,0.104v0.313h0.941h1.15v-0.313l-0.418-0.104c-0.313-0.104-0.418-0.104-0.313-0.418
	c0,0,0.209-0.522,0.523-1.567h1.881c0,0,0.418,1.148,0.627,1.567c0.104,0.209,0,0.313-0.313,0.418l-0.418,0.104v0.313h1.254h1.254
	v-0.313l-0.418-0.104C76.62,171.847,76.516,171.742,76.516,171.533z M73.066,169.651l0.836-2.194l0.836,2.194H73.066z"/>
<path fill="#072605" d="M81.847,170.801l-0.836-1.254c0.732-0.313,1.15-0.836,1.15-1.463c0-1.15-1.045-1.464-1.672-1.464
	c-0.522,0-1.254,0.104-1.254,0.104h-1.568v0.313l0.418,0.104c0.314,0.105,0.314,0.105,0.418,0.418c0,0,0,0.732,0,1.986
	s0,1.986,0,1.986c0,0.209-0.104,0.313-0.418,0.418l-0.418,0.104v0.313h1.254h1.254v-0.313l-0.418-0.104
	c-0.313-0.104-0.418-0.104-0.418-0.418c0-0.941,0-1.777,0-1.777h0.941c0.104,0.209,0.209,0.314,0.313,0.523
	c0.418,0.73,0.836,1.567,1.254,1.776c0.313,0.209,0.732,0.209,1.15,0.209h0.313l0.104-0.313
	C82.579,171.951,82.16,171.429,81.847,170.801z M80.174,169.442h-0.313c-0.314,0-0.523-0.104-0.627-0.104v-2.195
	c0-0.104,0-0.104,0.104-0.104h0.523c0.731,0,1.254,0.419,1.254,1.149C81.115,169.129,80.488,169.442,80.174,169.442z"/>
<path fill="#072605" d="M87.491,166.725v0.313l0.418,0.104c0.314,0.105,0.418,0.105,0.418,0.418c0,1.568,0.104,3.555,0.104,3.555
	l-2.718-3.658c-0.209-0.209-0.313-0.628-0.313-0.628h-0.836h-1.045v0.313l0.418,0.105c0.313,0.104,0.418,0.104,0.418,0.418
	c0,0.521-0.104,3.554-0.104,4.076c0,0.209-0.104,0.313-0.418,0.418l-0.418,0.104v0.313h0.941h1.045v-0.313l-0.418-0.104
	c-0.313-0.104-0.418-0.104-0.418-0.418c0-1.045,0-4.182,0-4.182s1.463,1.882,3.659,4.913h0.522c0-0.731,0-4.808,0-4.808
	c0-0.209,0.104-0.314,0.418-0.418l0.418-0.105v-0.313h-1.045L87.491,166.725z"/>
<path fill="#072605" d="M95.018,171.533c-1.15-2.613-1.986-5.018-1.986-5.018l-0.627,0.104c0,0-1.045,2.613-1.882,4.809
	c-0.104,0.209-0.209,0.313-0.418,0.418l-0.418,0.104v0.313h0.94h1.15v-0.313l-0.418-0.104c-0.313-0.104-0.418-0.104-0.313-0.418
	c0,0,0.209-0.522,0.522-1.567h1.882c0,0,0.418,1.148,0.627,1.567c0.104,0.209,0,0.313-0.313,0.418l-0.418,0.104v0.313h1.254h1.254
	v-0.313l-0.418-0.104C95.227,171.847,95.122,171.742,95.018,171.533z M91.672,169.651l0.836-2.194l0.836,2.194H91.672z"/>
<path fill="#072605" d="M100.453,170.801l-0.836-1.254c0.732-0.313,1.15-0.836,1.15-1.463c0-1.15-1.045-1.464-1.672-1.464
	c-0.523,0-1.254,0.104-1.254,0.104h-1.568v0.313l0.418,0.104c0.313,0.105,0.313,0.105,0.418,0.418c0,0,0,0.732,0,1.986
	s0,1.986,0,1.986c0,0.209-0.104,0.313-0.418,0.418l-0.418,0.104v0.313h1.254h1.254v-0.313l-0.418-0.104
	c-0.313-0.104-0.418-0.104-0.418-0.418c0-0.941,0-1.777,0-1.777h0.94c0.105,0.209,0.209,0.314,0.314,0.523
	c0.418,0.73,0.836,1.567,1.254,1.776c0.313,0.209,0.731,0.209,1.149,0.209h0.314l0.104-0.313
	C101.185,171.951,100.767,171.429,100.453,170.801z M98.78,169.442h-0.313c-0.313,0-0.522-0.104-0.627-0.104v-2.195
	c0-0.104,0-0.104,0.104-0.104h0.522c0.732,0,1.254,0.419,1.254,1.149C99.721,169.129,99.094,169.442,98.78,169.442z"/>
<path fill="#072605" d="M104.948,166.725c-0.313,0-1.045,0-1.777,0.104h-1.15v0.313l0.418,0.105
	c0.313,0.104,0.418,0.104,0.418,0.418c0,0,0,0.731,0,1.985c0,1.255,0,1.986,0,1.986c0,0.209-0.104,0.313-0.418,0.418l-0.418,0.104
	v0.313h1.15c0.209,0,1.359,0.104,1.463,0.104c2.195,0,3.24-1.254,3.24-2.822C107.875,167.979,106.934,166.725,104.948,166.725z
	 M104.739,171.951c-0.732,0-1.15,0-1.15-0.627v-4.182c0-0.104,0-0.104,0.104-0.104h0.732c1.568,0,2.299,0.94,2.299,2.509
	C106.829,171.638,105.68,171.951,104.739,171.951z"/>
<path fill="#072605" d="M114.355,171.742c-0.313,0.104-0.627,0.104-0.836,0.104c-1.463,0-2.404-0.94-2.404-2.509
	c0-1.672,1.045-2.3,1.986-2.3c0.731,0,1.15,0.313,1.359,0.837l0.209,0.522h0.313c0-0.522,0.104-1.359,0.209-1.673l-0.627,0.104
	c-0.209-0.104-0.732-0.209-1.359-0.209c-1.777,0-2.927,1.255-2.927,2.927c0,1.673,1.15,2.822,2.927,2.822
	c1.045,0,1.881-0.418,2.091-0.418c0-0.836,0-1.359,0-1.359h-0.314L114.355,171.742z"/>
<path fill="#072605" d="M118.85,166.62c-1.777,0-2.927,1.255-2.927,2.927c0,1.882,1.463,2.822,2.822,2.822
	c1.777,0,2.927-1.254,2.927-2.927C121.672,167.561,120.209,166.62,118.85,166.62z M118.85,171.951c-1.045,0-1.986-0.836-1.986-2.613
	c0-1.045,0.418-2.404,1.881-2.404c1.045,0,1.881,0.836,1.881,2.613C120.732,170.697,120.313,171.951,118.85,171.951z"/>
<path fill="#072605" d="M126.481,171.22c-0.313,0.522-0.627,0.627-0.941,0.627h-0.836c-0.418,0-0.522-0.104-0.522-0.418
	s0-1.149,0-1.986c0-1.255,0-1.985,0-1.985c0-0.314,0.104-0.314,0.418-0.419l0.418-0.104v-0.313h-1.254h-1.254v0.313l0.418,0.104
	c0.313,0.104,0.418,0.104,0.418,0.419c0,0,0,0.73,0,1.985s0,1.986,0,1.986c0,0.209-0.104,0.313-0.418,0.418l-0.418,0.104v0.313
	h1.254h1.777c0.418,0,1.568,0,1.568,0c0-0.313,0.209-1.567,0.209-1.673h-0.313L126.481,171.22z"/>
<path fill="#072605" d="M131.708,171.22c-0.314,0.522-0.627,0.627-0.941,0.627h-0.836c-0.418,0-0.522-0.104-0.522-0.418
	s0-1.149,0-1.986c0-1.255,0-1.985,0-1.985c0-0.314,0.104-0.314,0.418-0.419l0.418-0.104v-0.313h-1.254h-1.254v0.313l0.418,0.104
	c0.313,0.104,0.418,0.104,0.418,0.419c0,0,0,0.73,0,1.985s0,1.986,0,1.986c0,0.209-0.104,0.313-0.418,0.418l-0.418,0.104v0.313
	h1.254h1.777c0.418,0,1.568,0,1.568,0c0-0.313,0.209-1.567,0.209-1.673h-0.313L131.708,171.22z"/>
<path fill="#072605" d="M137.038,171.22c-0.313,0.522-0.627,0.627-0.94,0.627h-0.941c-0.418,0-0.627-0.209-0.627-0.522v-1.777
	c0,0,0.522,0,1.045,0c0.209,0,0.314,0.104,0.418,0.418l0.104,0.418h0.313v-1.045v-1.045h-0.313l-0.104,0.418
	c-0.104,0.313-0.209,0.418-0.418,0.418c-0.418,0-1.045,0-1.045,0v-1.881c0-0.105,0-0.105,0.104-0.105h1.568
	c0.313,0,0.418,0.314,0.627,0.732l0.104,0.418h0.314c0.104-1.15,0.104-1.568,0.104-1.568s-0.732,0.104-1.254,0.104h-2.091h-1.254
	v0.313l0.418,0.105c0.313,0.104,0.313,0.104,0.418,0.418c0,0,0,0.731,0,1.985c0,1.255,0,1.986,0,1.986
	c0,0.209-0.104,0.313-0.418,0.418l-0.418,0.104v0.313h1.254h1.777c0.418,0,1.568,0,1.568,0c0-0.313,0.209-1.567,0.209-1.673h-0.313
	L137.038,171.22z"/>
<path fill="#072605" d="M141.742,169.756v0.314l0.522,0.104c0.314,0,0.418,0.105,0.418,0.418v1.15c0,0.209-0.418,0.313-0.836,0.313
	c-1.881,0-2.509-1.358-2.509-2.613c0-1.464,0.836-2.3,2.195-2.3c0.731,0,1.254,0.314,1.463,0.836l0.209,0.523h0.313
	c0-0.523,0.104-1.359,0.209-1.673l-0.627,0.104c-0.209-0.104-0.941-0.209-1.568-0.209c-1.568,0-3.136,0.941-3.136,2.822
	c0,1.15,0.627,2.822,3.136,2.822c0.94,0,2.09-0.418,2.09-0.418v-1.359c0-0.209,0.104-0.312,0.418-0.418l0.313-0.104v-0.314h-1.15
	H141.742z"/>
<path fill="#072605" d="M148.955,171.22c-0.313,0.522-0.627,0.627-0.94,0.627h-0.941c-0.418,0-0.627-0.209-0.627-0.522v-1.777
	c0,0,0.523,0,1.045,0c0.209,0,0.313,0.104,0.418,0.418l0.105,0.418h0.313v-1.045v-1.045h-0.313l-0.105,0.418
	c-0.104,0.313-0.209,0.418-0.418,0.418c-0.418,0-1.045,0-1.045,0v-1.881c0-0.105,0-0.105,0.105-0.105h1.568
	c0.313,0,0.418,0.314,0.627,0.732l0.104,0.312h0.313c0.105-1.149,0.105-1.567,0.105-1.567s-0.732,0.104-1.254,0.104h-2.091h-1.254
	v0.313l0.418,0.104c0.314,0.105,0.314,0.105,0.418,0.418c0,0,0,0.732,0,1.986s0,1.986,0,1.986c0,0.209-0.104,0.313-0.418,0.418
	l-0.418,0.104v0.313h1.254h1.777c0.418,0,1.568,0,1.568,0c0-0.313,0.209-1.568,0.209-1.672h-0.314L148.955,171.22z"/>
<rect x="58.118" y="122.299" fill="#072605" width="0.523" height="55.401"/>
</svg>
