<?xml version="1.0" encoding="utf-8"?>
<!-- Generator: Adobe Illustrator 16.0.0, SVG Export Plug-In . SVG Version: 6.00 Build 0)  -->
<!DOCTYPE svg PUBLIC "-//W3C//DTD SVG 1.1//EN" "http://www.w3.org/Graphics/SVG/1.1/DTD/svg11.dtd">
<svg version="1.1" id="Layer_1" xmlns="http://www.w3.org/2000/svg" xmlns:xlink="http://www.w3.org/1999/xlink" x="0px" y="0px"
	 width="300px" height="55px" viewBox="0 122.5 300 55" enable-background="new 0 122.5 300 55" xml:space="preserve">
<g>
	<path fill="#072605" d="M69.727,142.024v-0.412l-0.547-0.136c-0.411-0.069-0.548-0.207-0.548-0.548c0,0,0-1.095,0-2.874
		c0-1.779,0-2.736,0-2.736c0-0.343,0.137-0.48,0.548-0.549l0.547-0.136v-0.411l-1.779,0.068l-1.779-0.068v0.479l0.548,0.136
		c0.41,0.068,0.547,0.206,0.547,0.548c0,0,0,0.958,0,2.737c0,1.779,0,2.875,0,2.875c0,0.341-0.137,0.479-0.547,0.547l-0.548,0.136
		v0.411l1.779-0.068H69.727z"/>
	<path fill="#072605" d="M71.3,138.67v2.394c0,0.343-0.137,0.412-0.547,0.548l-0.205,0.069v0.343l1.368-0.07l1.368,0.07v-0.343
		l-0.342-0.069c-0.411-0.067-0.479-0.205-0.479-0.548v-2.258c0-0.958,0.137-1.641,1.163-1.641c0.479,0,0.753,0.205,0.89,0.479
		c0.205,0.343,0.205,0.821,0.205,1.369c0,0.615,0,1.643,0,1.78c0,0.615-0.205,0.684-0.547,0.752l-0.273,0.067v0.342l1.437-0.068
		l1.369,0.068v-0.342l-0.343-0.067c-0.41-0.069-0.547-0.206-0.547-0.547c0,0,0-1.78,0-2.738c0-1.162-0.616-1.847-1.779-1.847
		c-0.89,0-1.506,0.616-1.711,0.89h-0.069v-0.958h-0.273l-1.436,0.753v0.342l0.478,0.137C71.3,137.712,71.3,137.917,71.3,138.67z"/>
	<path fill="#072605" d="M79.033,142.16c1.026,0,1.985-0.547,1.985-1.642c0-1.779-2.669-1.505-2.669-2.738
		c0-0.547,0.41-0.751,0.958-0.751c0.342,0,0.685,0.137,0.753,0.341l0.273,0.821h0.41c0-0.411,0.069-0.958,0.138-1.368
		c-0.343-0.137-1.027-0.274-1.575-0.274c-1.025,0-1.916,0.479-1.916,1.573c0,1.71,2.669,1.438,2.669,2.737
		c0,0.479-0.274,0.821-0.958,0.821c-0.616,0-0.889-0.342-1.027-0.617l-0.272-0.82H77.39c0,0.205,0,0.411,0,0.615
		c0,0.41,0,0.752,0,0.958C77.322,141.818,78.142,142.16,79.033,142.16z"/>
	<path fill="#072605" d="M84.508,141.476c-0.549,0-0.822-0.207-0.822-1.164v-2.942l1.642,0.137l0.068-0.684h-1.71v-1.505h-0.48
		c-0.068,0.477-0.342,1.094-0.821,1.368c-0.272,0.137-0.616,0.273-0.821,0.273v0.479h0.958v3.354c0,0.957,0.616,1.367,1.505,1.367
		c0.616,0,1.301-0.274,1.505-0.821l-0.205-0.274C85.259,141.27,84.78,141.476,84.508,141.476z"/>
	<path fill="#072605" d="M86.833,138.67v2.394c0,0.343-0.138,0.412-0.548,0.548l-0.205,0.069v0.343l1.3-0.07l1.573,0.07v-0.343
		l-0.478-0.069c-0.411-0.067-0.547-0.205-0.547-0.548v-2.942c0.068-0.068,0.683-0.41,0.888-0.547c0.069,0,0.754,0.547,0.754,0.547
		h0.136c0.343-0.136,0.616-0.479,0.616-0.752c0-0.341-0.273-0.752-0.821-0.752c-0.617,0-1.301,0.685-1.573,1.095H87.86l0.069-1.231
		h-0.274l-1.437,0.752v0.206l0.479,0.137C86.765,137.712,86.833,137.917,86.833,138.67z"/>
	<path fill="#072605" d="M91.35,137.78c0,0,0,1.575,0,2.464c0,1.163,0.547,1.847,1.71,1.847c0.889,0,1.436-0.616,1.642-0.89h0.068
		v0.822h0.342l1.643-0.274v-0.342l-0.342-0.068c-0.411-0.069-0.479-0.206-0.479-0.821v-1.984c0-0.89,0.068-1.916,0.068-1.916
		l-0.616,0.069l-1.368,0.069v0.342l0.342,0.068c0.41,0.068,0.479,0.273,0.479,0.615v1.916c0,1.027-0.069,1.711-1.096,1.711
		c-0.957,0-1.094-0.615-1.094-1.916c0-0.821,0-2.258,0.068-2.874l-0.617,0.069l-1.368,0.069v0.342l0.275,0.068
		C91.281,137.302,91.35,137.507,91.35,137.78z"/>
	<path fill="#072605" d="M99.766,142.16c0.752,0,1.643-0.274,2.189-1.232l-0.205-0.272c-0.204,0.409-0.821,0.752-1.369,0.752
		c-0.889,0-1.778-0.615-1.778-2.121c0-1.506,0.616-2.189,1.437-2.189c0.479,0,0.548,0.068,0.548,0.547v0.684l0.342,0.206
		c0.411-0.069,0.821-0.274,0.821-0.821c0-0.342-0.41-1.026-1.779-1.026c-1.574,0-2.667,1.23-2.667,2.874
		C97.303,141.339,98.533,142.16,99.766,142.16z"/>
	<path fill="#072605" d="M103.256,140.724c0,0.958,0.615,1.368,1.504,1.368c0.616,0,1.3-0.273,1.506-0.822l-0.206-0.272
		c-0.137,0.272-0.616,0.41-0.89,0.41c-0.547,0-0.821-0.205-0.821-1.163v-2.942l1.642,0.137l0.069-0.684h-1.711v-1.506h-0.479
		c-0.068,0.478-0.343,1.094-0.821,1.368c-0.274,0.138-0.616,0.274-0.821,0.274v0.547h0.957v3.285H103.256z"/>
	<path fill="#072605" d="M108.046,135.523c0.478,0,0.82-0.342,0.82-0.821c0-0.479-0.343-0.821-0.82-0.821
		c-0.48,0-0.821,0.341-0.821,0.821C107.225,135.113,107.566,135.523,108.046,135.523z"/>
	<path fill="#072605" d="M109.551,142.024v-0.343l-0.343-0.069c-0.409-0.067-0.547-0.205-0.547-0.548v-2.736
		c0-1.095,0-1.847,0-1.847h-0.41l-1.507,0.752v0.206l0.48,0.137c0.272,0.137,0.341,0.341,0.341,1.095v2.394
		c0,0.343-0.137,0.412-0.547,0.548l-0.342,0.069v0.343l1.437-0.07L109.551,142.024z"/>
	<path fill="#072605" d="M112.767,142.16c1.642,0,2.736-1.162,2.736-2.805c0-1.848-1.3-2.737-2.599-2.737
		c-1.711,0-2.738,1.231-2.738,2.806C110.167,141.27,111.535,142.16,112.767,142.16z M112.836,137.029
		c0.752,0,1.505,0.684,1.505,2.463c0,0.958-0.274,2.258-1.437,2.258c-0.822,0-1.506-0.752-1.506-2.463
		C111.398,138.328,111.672,137.029,112.836,137.029z"/>
	<path fill="#072605" d="M117.077,138.67v2.394c0,0.343-0.137,0.412-0.548,0.548l-0.204,0.069v0.343l1.37-0.07l1.368,0.07v-0.343
		l-0.343-0.069c-0.41-0.067-0.479-0.205-0.479-0.548v-2.258c0-0.958,0.137-1.641,1.162-1.641c0.479,0,0.753,0.205,0.89,0.479
		c0.206,0.343,0.206,0.821,0.206,1.369c0,0.615,0,1.643,0,1.78c0,0.615-0.206,0.684-0.547,0.752l-0.274,0.067v0.342l1.438-0.068
		l1.368,0.068v-0.342l-0.342-0.067c-0.409-0.069-0.546-0.206-0.546-0.547c0,0,0-1.78,0-2.738c0-1.162-0.617-1.847-1.78-1.847
		c-0.89,0-1.505,0.616-1.71,0.89h-0.068v-0.958h-0.273l-1.437,0.753v0.342l0.479,0.137
		C117.009,137.712,117.077,137.917,117.077,138.67z"/>
	<path fill="#072605" d="M128.026,141.476l-0.138-0.207c-0.068,0.069-0.272,0.207-0.479,0.207c-0.274,0-0.479-0.207-0.479-0.616
		c0-0.547,0.068-1.779,0.068-2.532c0-1.231-0.685-1.71-1.779-1.71c-1.231,0-2.121,0.479-2.121,1.095c0,0.479,0.41,0.752,0.82,0.821
		l0.343-0.206v-0.958c0-0.341,0.342-0.41,0.685-0.41c0.82,0,0.956,0.616,0.956,1.299v0.684c-1.504,0.07-2.941,0.549-2.941,1.781
		c0,0.752,0.616,1.368,1.504,1.368c0.82,0,1.301-0.547,1.437-0.822c0.07,0.549,0.48,0.822,1.027,0.822
		C127.341,142.16,127.82,141.886,128.026,141.476z M125.836,140.518c0,0.615-0.479,0.889-0.889,0.889
		c-0.548,0-0.89-0.343-0.89-0.889c0-0.958,1.094-1.094,1.778-1.232V140.518z"/>
	<path fill="#072605" d="M131.037,142.024v-0.343l-0.342-0.069c-0.411-0.067-0.548-0.205-0.548-0.548v-4.036
		c0-1.506,0-3.353,0-3.353h-0.341l-1.573,0.41v0.205l0.409,0.137c0.274,0.137,0.344,0.342,0.344,1.095v5.542
		c0,0.343-0.138,0.412-0.548,0.548l-0.342,0.069v0.343l1.436-0.07L131.037,142.024z"/>
	<path fill="#072605" d="M136.58,142.024v-0.412l-0.549-0.136c-0.411-0.069-0.546-0.207-0.546-0.548c0-1.778,0-5.884,0-5.884
		c1.163,2.736,2.052,4.996,2.874,6.98h0.684c0.411-1.164,2.327-5.817,2.737-6.98c0,0,0,2.189,0.068,5.884
		c0,0.342-0.136,0.479-0.548,0.548l-0.616,0.136v0.412l1.711-0.07l1.779,0.07v-0.412l-0.547-0.136
		c-0.41-0.069-0.546-0.207-0.546-0.548c0,0,0-2.326-0.068-5.609c0-0.343,0.136-0.48,0.546-0.549l0.547-0.136v-0.411l-1.71,0.068
		l-1.162-0.068v0.479c0,0-1.096,3.011-2.26,5.816c-0.41-1.094-2.326-5.749-2.53-6.228l-1.165,0.068l-1.573-0.068v0.411l0.616,0.136
		c0.479,0.068,0.547,0.206,0.547,0.822c0,1.027-0.068,4.996-0.068,5.405c0,0.343-0.137,0.48-0.548,0.548l-0.616,0.137v0.41
		l1.369-0.068L136.58,142.024z"/>
	<path fill="#072605" d="M149.717,140.928l-0.273-0.272c-0.206,0.409-0.823,0.752-1.438,0.752c-0.89,0-1.78-0.615-1.78-2.121
		c0-0.205,0-0.273,0-0.273h3.491v-0.206c0-1.026-0.684-2.189-2.189-2.189c-1.233,0-2.463,1.095-2.463,2.874
		c0,1.916,1.162,2.737,2.395,2.737C148.349,142.16,149.238,141.886,149.717,140.928z M147.596,136.96
		c0.753,0,1.025,0.616,1.025,1.574h-2.257C146.432,137.576,146.843,136.96,147.596,136.96z"/>
	<path fill="#072605" d="M154.575,141.27h0.068v0.822h0.344l1.642-0.273v-0.342l-0.344-0.069c-0.411-0.068-0.478-0.205-0.478-0.821
		v-3.831c0-1.437,0-3.012,0-3.012h-0.343l-1.573,0.41v0.205l0.479,0.137c0.272,0.137,0.341,0.342,0.341,1.095v1.301
		c-0.274-0.136-0.82-0.274-1.3-0.274c-1.573,0-2.669,1.231-2.669,2.806c0,1.778,1.027,2.736,2.257,2.736
		C153.548,142.16,154.164,141.954,154.575,141.27z M153.48,141.339c-0.89,0-1.574-0.684-1.574-2.053
		c0-0.958,0.342-2.189,1.574-2.189c0.684,0,1.163,0.41,1.163,1.231v2.19C154.644,140.86,154.371,141.339,153.48,141.339z"/>
	<path fill="#072605" d="M159.913,141.681l-0.345-0.069c-0.409-0.067-0.546-0.205-0.546-0.548v-2.736c0-1.095,0-1.847,0-1.847
		h-0.411l-1.505,0.752v0.206l0.479,0.137c0.272,0.137,0.341,0.341,0.341,1.095v2.394c0,0.343-0.137,0.412-0.546,0.548l-0.343,0.069
		v0.343l1.437-0.07l1.438,0.07V141.681z"/>
	<path fill="#072605" d="M158.475,135.523c0.479,0,0.821-0.342,0.821-0.821c0-0.479-0.342-0.821-0.821-0.821s-0.82,0.341-0.82,0.821
		C157.654,135.113,157.995,135.523,158.475,135.523z"/>
	<path fill="#072605" d="M164.495,142.16c0.479,0,0.891-0.274,1.096-0.615l-0.137-0.206c-0.068,0.068-0.272,0.206-0.479,0.206
		c-0.272,0-0.479-0.206-0.479-0.617c0-0.547,0.07-1.778,0.07-2.532c0-1.23-0.685-1.709-1.778-1.709
		c-1.232,0-2.123,0.479-2.123,1.094c0,0.479,0.411,0.753,0.823,0.822l0.341-0.206v-0.957c0-0.342,0.343-0.41,0.685-0.41
		c0.82,0,0.957,0.615,0.957,1.299v0.685c-1.505,0.068-2.942,0.548-2.942,1.78c0,0.752,0.616,1.367,1.506,1.367
		c0.822,0,1.3-0.547,1.437-0.821C163.538,141.818,163.949,142.16,164.495,142.16z M163.47,140.518c0,0.615-0.478,0.889-0.889,0.889
		c-0.548,0-0.89-0.343-0.89-0.889c0-0.958,1.096-1.094,1.778-1.232V140.518z"/>
	<path fill="#072605" d="M67.674,155.299c0.821,0,1.3-0.549,1.437-0.822c0.068,0.547,0.479,0.822,1.026,0.822
		c0.479,0,0.89-0.275,1.095-0.617l-0.136-0.205c-0.069,0.068-0.274,0.205-0.479,0.205c-0.274,0-0.479-0.205-0.479-0.615
		c0-0.547,0.068-1.781,0.068-2.531c0-1.232-0.684-1.711-1.778-1.711c-1.232,0-2.122,0.479-2.122,1.094
		c0,0.479,0.411,0.752,0.821,0.822l0.343-0.205v-0.959c0-0.343,0.342-0.411,0.684-0.411c0.821,0,0.958,0.616,0.958,1.299v0.686
		c-1.505,0.066-2.943,0.547-2.943,1.779C66.168,154.682,66.784,155.299,67.674,155.299z M69.111,152.494v1.162
		c0,0.615-0.479,0.889-0.89,0.889c-0.547,0-0.89-0.34-0.89-0.889C67.332,152.697,68.427,152.561,69.111,152.494z"/>
	<path fill="#072605" d="M75.133,149.687c-0.89,0-1.506,0.616-1.711,0.89h-0.068v-0.957h-0.274l-1.437,0.753v0.204l0.479,0.137
		c0.274,0.137,0.342,0.344,0.342,1.096v2.396c0,0.34-0.137,0.408-0.547,0.545l-0.206,0.07v0.342l1.368-0.068l1.369,0.068v-0.342
		l-0.342-0.07c-0.411-0.068-0.479-0.205-0.479-0.545v-2.26c0-0.959,0.138-1.643,1.164-1.643c0.479,0,0.752,0.207,0.89,0.479
		c0.206,0.342,0.206,0.822,0.206,1.369c0,0.613,0,1.643,0,1.779c0,0.615-0.206,0.684-0.548,0.752l-0.273,0.068v0.344l1.436-0.07
		l1.369,0.07v-0.344l-0.342-0.068c-0.411-0.068-0.547-0.205-0.547-0.547c0,0,0-1.779,0-2.738
		C76.912,150.373,76.294,149.687,75.133,149.687z"/>
	<path fill="#072605" d="M82.248,148.729v1.301c-0.273-0.138-0.821-0.275-1.299-0.275c-1.574,0-2.668,1.231-2.668,2.806
		c0,1.777,1.025,2.738,2.189,2.738c0.616,0,1.299-0.205,1.709-0.891h0.069v0.822h0.343l1.642-0.275v-0.342l-0.341-0.068
		c-0.412-0.068-0.479-0.207-0.479-0.818v-3.834c0-1.437,0-3.01,0-3.01H83.07l-1.574,0.41v0.206l0.479,0.136
		C82.179,147.702,82.248,147.908,82.248,148.729z M82.248,153.52c0,0.48-0.273,0.889-1.163,0.889c-0.89,0-1.575-0.682-1.575-2.053
		c0-0.959,0.343-2.19,1.575-2.19c0.684,0,1.163,0.411,1.163,1.231V153.52z"/>
	<path fill="#072605" d="M93.949,147.361c0,0-0.753,0.137-1.643,0.137h-1.915h-1.916c-0.958,0-1.642-0.137-1.642-0.137
		s0,1.231-0.138,2.258h0.479l0.137-0.479c0.274-0.822,0.479-1.095,1.026-1.095h1.437c0,0,0,1.506,0,3.286c0,1.777,0,2.805,0,2.805
		c0,0.342-0.138,0.479-0.547,0.547l-0.616,0.139v0.41l1.779-0.068l1.709,0.068v-0.41l-0.547-0.139
		c-0.41-0.068-0.546-0.205-0.546-0.547c0,0,0-1.027,0-2.805c0-1.779,0-3.286,0-3.286h1.437c0.547,0,0.751,0.273,1.027,1.095
		l0.136,0.479h0.479C93.949,148.592,93.949,147.361,93.949,147.361z"/>
	<path fill="#072605" d="M96.276,149.687c-1.232,0-2.464,1.095-2.464,2.874c0,1.916,1.163,2.738,2.395,2.738
		c0.751,0,1.642-0.275,2.189-1.232l-0.272-0.273c-0.206,0.412-0.821,0.752-1.438,0.752c-0.89,0-1.779-0.615-1.779-2.119
		c0-0.209,0-0.275,0-0.275h3.489v-0.205C98.465,150.85,97.781,149.687,96.276,149.687z M94.975,151.74
		c0.069-1.027,0.479-1.575,1.232-1.575c0.751,0,1.027,0.616,1.027,1.575H94.975z"/>
	<path fill="#072605" d="M99.287,152.561c0,1.916,1.231,2.738,2.462,2.738c0.753,0,1.643-0.275,2.19-1.232l-0.206-0.273
		c-0.206,0.412-0.821,0.752-1.368,0.752c-0.89,0-1.78-0.615-1.78-2.119c0-1.508,0.615-2.192,1.437-2.192
		c0.479,0,0.548,0.069,0.548,0.548v0.684l0.342,0.205c0.41-0.066,0.821-0.273,0.821-0.82c0-0.34-0.411-1.025-1.78-1.025
		C100.45,149.687,99.287,150.918,99.287,152.561z"/>
	<path fill="#072605" d="M106.335,146.813h-0.343l-1.574,0.411v0.206l0.479,0.136c0.273,0.137,0.342,0.342,0.342,1.095v5.544
		c0,0.34-0.137,0.408-0.547,0.545l-0.206,0.07v0.342l1.3-0.068l1.368,0.068v-0.342l-0.342-0.07
		c-0.409-0.068-0.478-0.205-0.478-0.545v-2.26c0-0.959,0.137-1.643,1.162-1.643c0.48,0,0.754,0.207,0.889,0.479
		c0.207,0.342,0.207,0.822,0.207,1.369v1.025c0,1.162-0.07,1.438-0.548,1.574l-0.274,0.07v0.342l1.437-0.068l1.368,0.068v-0.342
		l-0.342-0.07c-0.41-0.068-0.546-0.205-0.546-0.545c0,0,0-1.779,0-2.74c0-1.162-0.617-1.846-1.779-1.846
		c-0.89,0-1.505,0.614-1.71,0.891h-0.069c0,0,0.137-0.344,0.137-1.37v-2.327H106.335z"/>
	<path fill="#072605" d="M112.836,150.645h-0.069v-0.958h-0.275l-1.437,0.754v0.204l0.479,0.137
		c0.274,0.137,0.342,0.342,0.342,1.096v2.395c0,0.342-0.137,0.41-0.547,0.549l-0.206,0.066v0.344l1.368-0.068l1.369,0.068v-0.344
		l-0.342-0.066c-0.41-0.07-0.479-0.207-0.479-0.549v-2.258c0-0.957,0.137-1.641,1.164-1.641c0.479,0,0.753,0.204,0.889,0.477
		c0.206,0.342,0.206,0.82,0.206,1.367c0,0.617,0,1.645,0,1.783c0,0.613-0.206,0.682-0.548,0.75l-0.273,0.07v0.342l1.436-0.068
		l1.368,0.068v-0.342l-0.341-0.07c-0.411-0.068-0.548-0.205-0.548-0.545c0,0,0-1.779,0-2.74c0-1.162-0.616-1.846-1.778-1.846
		C113.657,149.687,113.04,150.303,112.836,150.645z"/>
	<path fill="#072605" d="M120.429,149.687c-1.709,0-2.734,1.231-2.734,2.808c0,1.844,1.299,2.736,2.598,2.736
		c1.642,0,2.738-1.164,2.738-2.805C123.031,150.576,121.732,149.687,120.429,149.687z M120.362,154.82
		c-0.821,0-1.506-0.754-1.506-2.465c0-0.959,0.274-2.257,1.438-2.257c0.754,0,1.505,0.683,1.505,2.462
		C121.798,153.588,121.525,154.82,120.362,154.82z"/>
	<path fill="#072605" d="M125.631,154.205v-4.04c0-1.505,0-3.353,0-3.353h-0.344l-1.573,0.411v0.206l0.412,0.136
		c0.273,0.137,0.341,0.342,0.341,1.095v5.544c0,0.34-0.136,0.408-0.547,0.545l-0.341,0.07v0.342l1.437-0.068l1.437,0.068v-0.342
		l-0.343-0.07C125.768,154.682,125.631,154.545,125.631,154.205z"/>
	<path fill="#072605" d="M129.873,149.687c-1.709,0-2.737,1.231-2.737,2.808c0,1.844,1.301,2.736,2.601,2.736
		c1.642,0,2.736-1.164,2.736-2.805C132.405,150.576,131.105,149.687,129.873,149.687z M129.805,154.82
		c-0.82,0-1.504-0.754-1.504-2.465c0-0.959,0.271-2.257,1.437-2.257c0.753,0,1.504,0.683,1.504,2.462
		C131.241,153.588,130.968,154.82,129.805,154.82z"/>
	<path fill="#072605" d="M135.62,149.687c-1.368,0-2.257,0.823-2.257,1.917c0,0.752,0.411,1.23,0.889,1.572
		c-0.479,0.344-0.752,0.754-0.752,1.096c0,0.41,0.274,0.752,0.822,0.891v0.068c-0.616,0.203-1.095,0.615-1.095,1.299
		c0,0.822,0.821,1.367,2.258,1.367c2.052,0,3.011-1.025,3.011-2.119c0-0.822-0.548-1.301-1.574-1.369l-1.232-0.137
		c-1.094-0.137-1.231-0.205-1.231-0.479c0-0.205,0.069-0.342,0.205-0.549c0.273,0.139,0.615,0.207,0.957,0.207
		c1.37,0,2.259-0.754,2.259-1.916c0-0.617-0.411-1.025-0.411-1.025l1.231,0.34h0.138v-1.025l-1.779,0.274
		C136.647,149.824,136.1,149.687,135.62,149.687z M134.8,155.299c0.342,0,1.231,0.068,1.916,0.205
		c0.547,0.068,0.685,0.41,0.685,0.82c0,0.82-0.616,1.164-1.505,1.164c-0.889,0-1.643-0.344-1.643-1.164
		C134.252,155.777,134.527,155.434,134.8,155.299z M135.62,153.107c-0.546,0-1.025-0.479-1.025-1.572
		c0-0.617,0.205-1.437,1.025-1.437c0.548,0,1.027,0.478,1.027,1.572C136.647,152.285,136.443,153.107,135.62,153.107z"/>
	<path fill="#072605" d="M142.601,149.824v0.341l0.273,0.068c0.273,0.069,0.547,0.139,0.547,0.343c0,0.068-0.068,0.273-0.137,0.41
		c-0.41,1.23-0.821,2.258-1.164,3.08c-0.41-1.096-0.888-2.189-1.232-3.285c-0.068-0.271,0-0.479,0.411-0.548l0.342-0.068v-0.341
		l-1.505,0.068l-1.3-0.068v0.341l0.206,0.068c0.342,0.139,0.411,0.139,0.547,0.548c0.615,1.504,1.299,3.285,1.779,4.381h0.273
		l-1.71,2.805l1.095,0.135l3.009-7.32c0.138-0.341,0.138-0.409,0.549-0.548l0.205-0.068v-0.341l-1.026,0.068L142.601,149.824z"/>
	<path fill="#072605" d="M148.759,149.004c0-0.753,0.616-1.165,1.437-1.165c0.822,0,1.163,0.206,1.231,0.412
		c0.205,0.615,0.412,1.231,0.412,1.231h0.409c0.068-0.89,0.204-1.916,0.204-1.916c-0.136-0.068-1.229-0.342-2.188-0.342
		c-1.71,0-2.668,1.027-2.668,2.052c0,2.601,3.968,2.054,3.968,4.037c0,0.893-0.751,1.369-1.573,1.369
		c-0.615,0-1.37-0.273-1.573-0.82c-0.412-0.822-0.548-1.436-0.548-1.436l-0.479,0.068c0.069,1.162,0.069,1.914,0.069,2.256
		c0.137,0,1.23,0.412,2.463,0.412c1.573,0,2.805-0.891,2.805-2.398C152.728,150.44,148.759,150.713,148.759,149.004z"/>
	<path fill="#072605" d="M156.285,149.687c-1.231,0-2.464,1.095-2.464,2.874c0,1.916,1.166,2.738,2.396,2.738
		c0.751,0,1.642-0.275,2.189-1.232l-0.272-0.273c-0.207,0.412-0.821,0.752-1.438,0.752c-0.888,0-1.776-0.615-1.776-2.119
		c0-0.209,0-0.275,0-0.275h3.487v-0.205C158.406,150.85,157.79,149.687,156.285,149.687z M154.987,151.74
		c0.066-1.027,0.478-1.575,1.229-1.575c0.751,0,1.027,0.616,1.027,1.575H154.987z"/>
	<path fill="#072605" d="M162.648,149.755c-0.615,0-1.298,0.686-1.573,1.095h-0.068l0.068-1.23h-0.272l-1.438,0.753v0.204
		l0.479,0.137c0.274,0.137,0.343,0.344,0.343,1.096v2.396c0,0.34-0.137,0.408-0.55,0.545l-0.205,0.07v0.342l1.301-0.068l1.575,0.068
		v-0.342l-0.479-0.07c-0.409-0.068-0.546-0.205-0.546-0.545v-3.014c0.068-0.068,0.683-0.41,0.889-0.547
		c0.068,0,0.753,0.547,0.753,0.547h0.137c0.341-0.135,0.615-0.479,0.615-0.751C163.47,150.098,163.196,149.755,162.648,149.755z"/>
	<path fill="#072605" d="M167.437,149.824v0.341l0.277,0.068c0.409,0.139,0.614,0.207,0.479,0.548
		c-0.274,0.822-1.232,3.219-1.301,3.354l-1.37-3.354c-0.137-0.271,0-0.479,0.411-0.548l0.411-0.068v-0.341l-1.438,0.068
		l-1.368-0.068v0.341l0.206,0.068c0.342,0.139,0.412,0.207,0.546,0.548c1.164,2.531,1.919,4.381,1.919,4.381h0.684
		c0,0,0.751-1.779,1.847-4.381c0.137-0.341,0.205-0.409,0.548-0.548l0.205-0.068v-0.341l-1.025,0.068L167.437,149.824z"/>
	<path fill="#072605" d="M171.749,154.205v-2.74c0-1.092,0-1.846,0-1.846h-0.411l-1.503,0.753v0.204l0.478,0.137
		c0.275,0.137,0.341,0.344,0.341,1.096v2.396c0,0.34-0.136,0.408-0.546,0.545l-0.341,0.07v0.342l1.437-0.068l1.438,0.068v-0.342
		l-0.344-0.07C171.886,154.682,171.749,154.545,171.749,154.205z"/>
	<path fill="#072605" d="M171.136,148.661c0.478,0,0.82-0.343,0.82-0.822c0-0.478-0.343-0.821-0.82-0.821
		c-0.482,0-0.823,0.343-0.823,0.821C170.312,148.25,170.653,148.661,171.136,148.661z"/>
	<path fill="#072605" d="M176.267,154.477c-0.891,0-1.78-0.615-1.78-2.121s0.618-2.19,1.438-2.19c0.479,0,0.548,0.068,0.548,0.547
		v0.684l0.343,0.207c0.407-0.068,0.82-0.273,0.82-0.822c0-0.341-0.413-1.026-1.779-1.026c-1.573,0-2.669,1.231-2.669,2.874
		c0,1.916,1.231,2.738,2.462,2.738c0.755,0,1.644-0.273,2.191-1.232l-0.205-0.273C177.429,154.205,176.883,154.477,176.267,154.477z
		"/>
	<path fill="#072605" d="M181.057,149.687c-1.232,0-2.464,1.095-2.464,2.874c0,1.916,1.163,2.738,2.394,2.738
		c0.755,0,1.644-0.275,2.191-1.232l-0.274-0.273c-0.205,0.412-0.821,0.752-1.438,0.752c-0.889,0-1.777-0.615-1.777-2.119
		c0-0.209,0-0.275,0-0.275h3.489v-0.205C183.246,150.85,182.562,149.687,181.057,149.687z M179.824,151.74
		c0.068-1.027,0.479-1.575,1.232-1.575s1.025,0.616,1.025,1.575H179.824z"/>
	<path fill="#072605" d="M185.299,150.85c0-0.547,0.411-0.751,0.957-0.751c0.344,0,0.685,0.135,0.753,0.342l0.274,0.821h0.41
		c0-0.412,0.068-0.959,0.136-1.37c-0.341-0.137-1.025-0.273-1.573-0.273c-1.025,0-1.916,0.479-1.916,1.572
		c0,1.711,2.669,1.438,2.669,2.738c0,0.479-0.273,0.82-0.959,0.82c-0.614,0-0.888-0.342-1.025-0.615l-0.275-0.822h-0.409
		c0,0.207,0,0.414,0,0.617c0,0.408,0,0.752,0,0.957c0,0,0.822,0.275,1.71,0.275c1.029,0,1.986-0.549,1.986-1.643
		C187.968,151.809,185.299,152.082,185.299,150.85z"/>
	<rect x="58.163" y="125.533" fill="#072605" width="0.342" height="49.403"/>
	<path fill="#072605" d="M68.153,163.373L68.153,163.373c0.547-0.137,0.821-0.48,0.821-0.889c0-0.549-0.479-0.891-1.094-0.891
		c-0.342,0-0.959,0-1.096,0h-0.821v0.207l0.274,0.066c0.206,0.068,0.274,0.068,0.274,0.273c0,0,0,0.479,0,1.301
		c0,0.82,0,1.299,0,1.299c0,0.137-0.068,0.205-0.274,0.273l-0.274,0.068v0.207h0.753c0.136,0,0.89,0.068,1.026,0.068
		c1.026,0,1.3-0.549,1.3-0.959C69.179,163.783,68.7,163.441,68.153,163.373z M67.126,161.867c0.137,0,0.274,0,0.548,0
		c0.547,0,0.753,0.273,0.753,0.684s-0.206,0.754-0.821,0.754c-0.274,0-0.479-0.068-0.479-0.068V161.867z M67.742,165.082
		c-0.411,0-0.616-0.068-0.616-0.41c0,0,0-0.684,0-1.162h0.412c0.752,0,1.026,0.273,1.026,0.82
		C68.495,164.74,68.221,165.082,67.742,165.082z"/>
	<path fill="#072605" d="M72.874,164.74c-0.752-1.711-1.3-3.283-1.3-3.283l-0.411,0.068c0,0-0.684,1.711-1.231,3.146
		c-0.069,0.137-0.137,0.205-0.274,0.273l-0.274,0.068v0.205H70h0.753v-0.205l-0.273-0.068c-0.206-0.068-0.274-0.068-0.206-0.273
		c0,0,0.137-0.342,0.343-1.027h1.231c0,0,0.274,0.754,0.41,1.027c0.069,0.137,0,0.205-0.205,0.273l-0.273,0.068v0.205h0.821h0.82
		v-0.205l-0.273-0.068C73.011,164.945,72.942,164.945,72.874,164.74z M70.685,163.51l0.547-1.438l0.547,1.438H70.685z"/>
	<path fill="#072605" d="M76.363,164.33l-0.547-0.82c0.478-0.205,0.752-0.549,0.752-0.959c0-0.75-0.684-0.957-1.095-0.957
		c-0.341,0-0.82,0.068-0.82,0.068h-1.027v0.205l0.274,0.068c0.205,0.068,0.205,0.068,0.273,0.273c0,0,0,0.479,0,1.299
		c0,0.822,0,1.301,0,1.301c0,0.137-0.068,0.205-0.273,0.273l-0.274,0.068v0.207h0.821h0.821v-0.207l-0.273-0.068
		c-0.206-0.068-0.274-0.068-0.274-0.273c0-0.615,0-1.164,0-1.164h0.616c0.068,0.139,0.136,0.207,0.205,0.344
		c0.274,0.479,0.547,1.025,0.821,1.162c0.206,0.139,0.479,0.139,0.753,0.139h0.206l0.068-0.207
		C76.912,165.014,76.638,164.672,76.363,164.33z M75.337,163.373h-0.205c-0.206,0-0.343-0.068-0.412-0.068v-1.438
		c0-0.066,0-0.066,0.069-0.066h0.343c0.478,0,0.82,0.271,0.82,0.75C75.885,163.168,75.542,163.373,75.337,163.373z"/>
	<path fill="#072605" d="M80.127,161.594v0.207l0.274,0.066c0.206,0.068,0.274,0.068,0.274,0.273c0,1.027,0.067,2.326,0.067,2.326
		l-1.778-2.395c-0.137-0.137-0.206-0.41-0.206-0.41h-0.547h-0.685v0.205l0.274,0.068c0.206,0.068,0.273,0.068,0.273,0.273
		c0,0.342-0.068,2.326-0.068,2.668c0,0.137-0.069,0.205-0.274,0.273l-0.273,0.068v0.207h0.615h0.684v-0.207l-0.273-0.068
		c-0.205-0.068-0.273-0.068-0.273-0.273c0-0.684,0-2.736,0-2.736s0.958,1.232,2.395,3.217h0.342c0-0.48,0-3.148,0-3.148
		c0-0.137,0.069-0.205,0.274-0.273l0.272-0.068v-0.205h-0.684L80.127,161.594z"/>
	<path fill="#072605" d="M85.054,164.74c-0.753-1.711-1.301-3.283-1.301-3.283l-0.409,0.068c0,0-0.685,1.711-1.231,3.146
		c-0.068,0.137-0.137,0.205-0.274,0.273l-0.275,0.068v0.205h0.616h0.753v-0.205l-0.273-0.068c-0.206-0.068-0.274-0.068-0.206-0.273
		c0,0,0.137-0.342,0.342-1.027h1.231c0,0,0.273,0.754,0.411,1.027c0.069,0.137,0,0.205-0.206,0.273l-0.274,0.068v0.205h0.821h0.82
		v-0.205l-0.272-0.068C85.122,164.945,85.122,164.945,85.054,164.74z M82.864,163.51l0.548-1.438l0.547,1.438H82.864z"/>
	<path fill="#072605" d="M88.544,164.33l-0.547-0.82c0.479-0.205,0.751-0.549,0.751-0.959c0-0.75-0.684-0.957-1.094-0.957
		c-0.342,0-0.821,0.068-0.821,0.068h-1.027v0.205l0.275,0.068c0.205,0.068,0.205,0.068,0.273,0.273c0,0,0,0.479,0,1.299
		c0,0.822,0,1.301,0,1.301c0,0.137-0.069,0.205-0.273,0.273l-0.275,0.068v0.207h0.821h0.822v-0.207l-0.274-0.068
		c-0.205-0.068-0.273-0.068-0.273-0.273c0-0.615,0-1.164,0-1.164h0.615c0.069,0.139,0.137,0.207,0.206,0.344
		c0.273,0.479,0.547,1.025,0.821,1.162c0.205,0.139,0.479,0.139,0.753,0.139h0.205l0.069-0.207
		C89.09,165.014,88.816,164.672,88.544,164.33z M87.45,163.373h-0.206c-0.206,0-0.341-0.068-0.41-0.068v-1.438
		c0-0.066,0-0.066,0.069-0.066h0.341c0.479,0,0.821,0.271,0.821,0.75C88.064,163.168,87.723,163.373,87.45,163.373z"/>
	<path fill="#072605" d="M91.486,161.594c-0.206,0-0.685,0-1.164,0.068h-0.752v0.205l0.273,0.068
		c0.206,0.068,0.274,0.068,0.274,0.273c0,0,0,0.479,0,1.301c0,0.82,0,1.299,0,1.299c0,0.137-0.069,0.205-0.274,0.273l-0.273,0.068
		v0.207h0.752c0.136,0,0.89,0.068,0.958,0.068c1.437,0,2.122-0.822,2.122-1.85C93.402,162.416,92.787,161.594,91.486,161.594z
		 M91.418,165.082c-0.479,0-0.753,0-0.753-0.41v-2.736c0-0.068,0-0.068,0.068-0.068h0.479c1.026,0,1.505,0.617,1.505,1.643
		C92.787,164.809,91.965,165.082,91.418,165.082z"/>
	<path fill="#072605" d="M97.712,164.877c-0.204,0.068-0.41,0.068-0.548,0.068c-0.957,0-1.573-0.615-1.573-1.641
		c0-1.096,0.685-1.504,1.3-1.504c0.48,0,0.752,0.203,0.89,0.543l0.068,0.412h0.206c0-0.34,0.069-0.889,0.137-1.094l-0.411,0.07
		c-0.137-0.07-0.479-0.139-0.89-0.139c-1.163,0-1.917,0.822-1.917,1.916s0.753,1.848,1.917,1.848c0.684,0,1.232-0.275,1.369-0.275
		c0-0.547,0-0.889,0-0.889h-0.205L97.712,164.877z"/>
	<path fill="#072605" d="M100.655,161.594c-1.163,0-1.916,0.822-1.916,1.916c0,1.23,0.958,1.848,1.848,1.848
		c1.163,0,1.916-0.822,1.916-1.916C102.434,162.209,101.545,161.594,100.655,161.594z M100.587,165.082
		c-0.684,0-1.3-0.547-1.3-1.709c0-0.686,0.273-1.572,1.231-1.572c0.684,0,1.231,0.543,1.231,1.709
		C101.818,164.193,101.545,165.082,100.587,165.082z"/>
	<path fill="#072605" d="M105.65,164.604c-0.206,0.342-0.411,0.41-0.616,0.41h-0.547c-0.274,0-0.342-0.068-0.342-0.273
		s0-0.752,0-1.299c0-0.822,0-1.301,0-1.301c0-0.205,0.068-0.205,0.273-0.273l0.274-0.066v-0.207h-0.821h-0.821v0.207l0.273,0.066
		c0.205,0.068,0.274,0.068,0.274,0.273c0,0,0,0.479,0,1.301c0,0.82,0,1.299,0,1.299c0,0.137-0.069,0.205-0.274,0.273l-0.273,0.068
		v0.207h0.821h1.163c0.274,0,1.026,0,1.026,0c0-0.207,0.138-1.027,0.138-1.096h-0.207L105.65,164.604z"/>
	<path fill="#072605" d="M109.071,164.604c-0.205,0.342-0.41,0.41-0.616,0.41h-0.546c-0.274,0-0.343-0.068-0.343-0.273
		s0-0.752,0-1.299c0-0.822,0-1.301,0-1.301c0-0.205,0.068-0.205,0.274-0.273l0.273-0.066v-0.207h-0.821h-0.82v0.207l0.273,0.066
		c0.206,0.068,0.274,0.068,0.274,0.273c0,0,0,0.479,0,1.301c0,0.82,0,1.299,0,1.299c0,0.137-0.068,0.205-0.274,0.273l-0.273,0.068
		v0.207h0.82h1.163c0.275,0,1.027,0,1.027,0c0-0.207,0.137-1.027,0.137-1.096h-0.206L109.071,164.604z"/>
	<path fill="#072605" d="M112.492,164.604c-0.204,0.342-0.41,0.41-0.616,0.41h-0.614c-0.275,0-0.412-0.137-0.412-0.342v-1.162
		c0,0,0.343,0,0.685,0c0.137,0,0.205,0.066,0.274,0.273l0.068,0.273h0.206v-0.684v-0.686h-0.206l-0.068,0.273
		c-0.069,0.207-0.137,0.275-0.274,0.275c-0.272,0-0.685,0-0.685,0v-1.301c0-0.068,0-0.068,0.069-0.068h1.026
		c0.206,0,0.274,0.205,0.41,0.477l0.068,0.207h0.207c0.068-0.75,0.068-1.025,0.068-1.025s-0.479,0.068-0.822,0.068h-1.369h-0.819
		v0.207l0.273,0.066c0.206,0.068,0.206,0.068,0.273,0.273c0,0,0,0.479,0,1.301c0,0.82,0,1.299,0,1.299
		c0,0.137-0.068,0.205-0.273,0.273l-0.273,0.068v0.207h0.819h1.165c0.273,0,1.027,0,1.027,0c0-0.207,0.137-1.027,0.137-1.096h-0.206
		L112.492,164.604z"/>
	<path fill="#072605" d="M115.64,163.576v0.207l0.342,0.068c0.206,0,0.274,0.068,0.274,0.271v0.754c0,0.137-0.274,0.205-0.548,0.205
		c-1.23,0-1.642-0.889-1.642-1.709c0-0.957,0.548-1.506,1.437-1.506c0.479,0,0.822,0.205,0.958,0.549l0.138,0.34h0.205
		c0-0.34,0.068-0.889,0.137-1.094l-0.411,0.07c-0.137-0.07-0.615-0.139-1.026-0.139c-1.025,0-2.053,0.615-2.053,1.848
		c0,0.752,0.411,1.848,2.053,1.848c0.616,0,1.369-0.275,1.369-0.275v-0.891c0-0.135,0.068-0.203,0.274-0.271l0.205-0.068v-0.207
		h-0.751H115.64z"/>
	<path fill="#072605" d="M120.293,164.604c-0.205,0.342-0.411,0.41-0.616,0.41h-0.615c-0.274,0-0.412-0.137-0.412-0.342v-1.162
		c0,0,0.343,0,0.685,0c0.136,0,0.205,0.066,0.273,0.273l0.068,0.273h0.205v-0.684v-0.686h-0.205l-0.068,0.273
		c-0.069,0.207-0.137,0.275-0.273,0.275c-0.273,0-0.685,0-0.685,0v-1.301c0-0.068,0-0.068,0.069-0.068h1.026
		c0.205,0,0.273,0.205,0.411,0.477l0.067,0.207h0.205c0.069-0.75,0.069-1.025,0.069-1.025s-0.479,0.068-0.821,0.068h-1.368h-0.822
		v0.207l0.274,0.066c0.205,0.068,0.205,0.068,0.273,0.273c0,0,0,0.479,0,1.301c0,0.82,0,1.299,0,1.299
		c0,0.137-0.068,0.205-0.273,0.273l-0.274,0.068v0.207h0.822h1.163c0.274,0,1.026,0,1.026,0c0-0.207,0.137-1.027,0.137-1.096h-0.207
		L120.293,164.604z"/>
	<path fill="#072605" d="M18.475,138.67v0.068c1.505,0.547,1.3,2.737,1.3,4.105v11.291c0,1.369,0.206,3.557-1.3,4.104v0.068h4.927
		c2.257,0,4.584,0.07,6.706-0.955c1.984-0.959,3.558-2.943,3.558-5.201c0-2.943-2.189-4.721-4.857-5.269
		c1.71-0.753,3.01-1.847,3.01-3.901c0-2.668-2.326-4.311-6.226-4.311H18.475z M30.381,152.426c0,2.805-2.463,3.967-4.927,3.762
		l-2.6-0.205v-7.391l2.121-0.136C27.576,148.318,30.381,149.551,30.381,152.426z M28.534,143.461c0,2.462-2.806,3.079-4.722,3.079
		l-0.958,0.068v-5.885l1.984-0.206C26.619,140.312,28.534,141.407,28.534,143.461z"/>
	<path fill="#072605" d="M9.991,133.676c0,0,0.889,0.751,2.326,0.957c1.164,0.136,2.259-0.821,2.259-0.821s-1.232-1.027-2.395-0.959
		C11.291,132.854,9.991,133.676,9.991,133.676z"/>
	<path fill="#072605" d="M17.312,132.17c0,0-0.958-1.233-2.121-1.37c-0.89-0.068-2.258,0.48-2.258,0.48s0.684,0.89,2.052,1.299
		C16.081,132.922,17.312,132.17,17.312,132.17z"/>
	<path fill="#072605" d="M20.254,131.007c0,0-0.752-1.368-1.847-1.711c-0.821-0.273-2.258,0.068-2.258,0.068s0.548,1.027,1.78,1.643
		C18.954,131.485,20.254,131.007,20.254,131.007z"/>
	<path fill="#072605" d="M49.609,149.824c1.026-0.82,1.095-2.395,1.095-2.395s-1.779,0.136-2.669,1.094
		c-0.274,0.342-0.479,0.821-0.615,1.301c0-0.958,0-1.848-0.137-2.738c0.411-0.137,1.231-0.546,1.984-1.437
		c0.89-0.958,0.685-2.532,0.685-2.532s-1.642,0.411-2.395,1.573c-0.206,0.343-0.342,0.822-0.411,1.301
		c-0.136-0.958-0.342-1.916-0.616-2.806c0.343-0.206,1.095-0.753,1.779-1.779c0.685-1.095,0.205-2.532,0.205-2.532
		s-1.574,0.685-2.052,1.917c-0.206,0.41-0.206,1.093-0.137,1.573c-0.343-1.027-0.684-1.985-1.165-2.942
		c0.343-0.274,0.959-0.89,1.369-1.985c0.479-1.095-0.205-2.463-0.205-2.463s-1.369,0.889-1.711,2.19
		c-0.069,0.41,0,0.957,0.068,1.368c-0.479-0.958-1.026-1.778-1.642-2.601c0.274-0.342,0.821-1.027,0.958-2.052
		c0.273-1.164-0.616-2.327-0.616-2.327s-1.163,1.095-1.231,2.327c0,0.41,0.068,0.889,0.274,1.3
		c-0.617-0.753-1.232-1.437-1.916-2.053c0.205-0.342,0.616-1.163,0.616-2.19c0-1.23-1.027-2.188-1.027-2.188s-0.958,1.3-0.821,2.531
		c0.069,0.41,0.343,0.958,0.616,1.368c-0.821-0.685-1.643-1.3-2.395-1.848c0.138-0.205,0.411-1.094,0.274-2.258
		c-0.205-1.163-1.369-1.916-1.369-1.916s-0.685,1.369-0.273,2.6c0.137,0.479,0.547,0.958,0.958,1.369
		c-1.095-0.685-2.054-1.164-2.874-1.506c0.069-0.272,0.273-1.162-0.137-2.325c-0.342-1.095-1.643-1.643-1.643-1.643
		s-0.41,1.505,0.136,2.532c0.274,0.479,0.959,1.027,1.301,1.3c-0.616-0.272-1.164-0.411-1.574-0.547
		c-0.138-0.138-0.821-0.958-1.643-1.094c-0.547-0.138-1.643,0.272-1.643,0.272s0.548,0.752,1.574,1.096
		c0.752,0.204,1.573-0.138,1.711-0.275c1.574,0.547,4.721,1.779,8.006,4.858c0.067,0.068,0.067,0.068,0.136,0.137l0,0l0,0
		c0.069,0.069,0.137,0.137,0.206,0.205c-0.342-0.205-1.3-0.753-2.054-0.753c-1.23-0.068-2.394,0.959-2.394,0.959
		s1.095,0.957,2.257,0.821c1.301-0.206,2.19-0.821,2.327-0.957c0.821,0.82,1.643,1.709,2.326,2.805
		c-0.342-0.274-1.164-0.958-1.916-1.095c-1.231-0.273-2.601,0.616-2.601,0.616s0.959,1.164,2.122,1.164
		c1.3,0.068,2.259-0.41,2.463-0.548c0.616,0.89,1.164,1.847,1.642,2.943c-0.343-0.411-0.958-1.027-1.437-1.165
		c-1.231-0.479-2.737,0.138-2.737,0.138s0.753,1.299,1.916,1.575c1.232,0.272,2.121,0,2.463-0.069
		c0.411,0.958,0.822,1.984,1.095,3.079c-0.273-0.479-0.752-1.026-1.164-1.3c-1.095-0.685-2.805-0.342-2.805-0.342
		s0.479,1.437,1.642,1.916c1.095,0.479,2.121,0.41,2.463,0.341c0.273,1.027,0.479,2.122,0.547,3.217
		c-0.206-0.479-0.547-1.162-1.027-1.574c-0.958-0.89-2.668-0.89-2.668-0.89s0.274,1.575,1.3,2.258
		c1.026,0.686,2.053,0.821,2.395,0.821c0.069,1.026,0.069,2.054,0,3.147c-0.137-0.547-0.342-1.3-0.684-1.709
		c-0.821-1.096-2.6-1.302-2.6-1.302s0,1.574,0.957,2.463c0.891,0.821,1.849,1.165,2.259,1.231c-0.137,0.959-0.273,1.916-0.547,2.875
		v0.066c-0.069-0.545-0.138-1.299-0.412-1.777c-0.616-1.164-2.326-1.779-2.326-1.779s-0.342,1.574,0.479,2.67
		c0.752,0.957,1.643,1.436,2.053,1.643c-0.273,0.889-0.615,1.777-0.958,2.668c0.068-0.549,0.068-1.232-0.068-1.713
		c-0.411-1.367-2.052-2.188-2.052-2.188s-0.616,1.572,0,2.736c0.547,1.094,1.368,1.709,1.778,1.984
		c-0.411,0.822-0.889,1.643-1.437,2.326c0.137-0.547,0.274-1.162,0.206-1.641c-0.206-1.371-1.643-2.533-1.643-2.533
		s-0.889,1.436-0.479,2.736c0.41,1.166,1.027,1.918,1.369,2.262c-0.547,0.684-1.095,1.367-1.71,1.98
		c0.205-0.477,0.411-1.025,0.411-1.436c0-1.438-1.232-2.873-1.232-2.873s-1.164,1.301-0.958,2.668
		c0.137,1.232,0.615,2.051,0.889,2.463c-0.615,0.547-1.231,1.096-1.848,1.574c0.274-0.41,0.479-0.82,0.616-1.232
		c0.274-1.504-0.752-3.145-0.752-3.145s-1.368,1.094-1.437,2.529c-0.069,1.232,0.274,2.121,0.479,2.67
		c-0.752,0.547-1.574,0.955-2.395,1.367c0.411-0.412,0.821-0.889,0.958-1.367c0.616-1.438-0.137-3.287-0.137-3.287
		s-1.573,0.891-1.916,2.328c-0.273,1.232-0.136,2.258,0,2.805c-0.752,0.344-1.573,0.615-2.326,0.752
		c0.411-0.34,0.89-0.684,1.164-1.094c0.821-1.299,0.411-3.285,0.411-3.285s-1.711,0.617-2.327,1.986
		c-0.479,1.094-0.547,2.121-0.479,2.668c-1.164,0.205-2.19,0.479-3.08,0.82c-0.616,0.205-1.231,0.48-1.71,0.686
		c-0.547-0.205-1.095-0.48-1.711-0.686c-0.89-0.342-1.917-0.615-3.011-0.82c0.068-0.547,0-1.574-0.479-2.668
		c-0.616-1.369-2.327-1.986-2.327-1.986s-0.41,1.986,0.41,3.285c0.274,0.41,0.752,0.822,1.164,1.094
		c-0.821-0.203-1.574-0.479-2.395-0.818c0.137-0.549,0.274-1.574,0-2.738c-0.342-1.438-1.916-2.328-1.916-2.328
		s-0.753,1.85-0.138,3.287c0.206,0.479,0.548,0.887,0.959,1.299c-0.753-0.412-1.506-0.82-2.259-1.299
		c0.206-0.48,0.548-1.438,0.479-2.67c-0.068-1.436-1.437-2.529-1.437-2.529s-1.026,1.641-0.752,3.145
		c0.068,0.412,0.341,0.891,0.615,1.301c-0.615-0.479-1.299-1.027-1.848-1.574c0.274-0.41,0.821-1.299,0.958-2.531
		c0.206-1.367-0.958-2.668-0.958-2.668s-1.299,1.436-1.231,2.873c0,0.479,0.205,1.027,0.479,1.506
		c-0.616-0.615-1.164-1.301-1.711-2.051c0.343-0.344,0.959-1.096,1.369-2.262c0.411-1.301-0.479-2.736-0.479-2.736
		s-1.505,1.162-1.643,2.533c-0.067,0.547,0.069,1.162,0.206,1.709c-0.547-0.752-1.026-1.572-1.505-2.463
		c0.411-0.275,1.232-0.891,1.779-1.984c0.616-1.162,0-2.736,0-2.736s-1.642,0.82-2.122,2.189c-0.137,0.479-0.137,1.094-0.068,1.641
		c-0.411-0.82-0.685-1.709-0.959-2.6c0.412-0.203,1.3-0.686,2.053-1.641c0.821-1.098,0.479-2.67,0.479-2.67
		s-1.847,0.684-2.463,1.848c-0.273,0.479-0.342,1.232-0.411,1.777v-0.066c-0.273-0.959-0.411-1.916-0.547-2.875
		c0.411-0.135,1.369-0.41,2.258-1.231c0.958-0.89,0.958-2.463,0.958-2.463s-1.711,0.206-2.6,1.302
		c-0.342,0.409-0.548,1.162-0.685,1.709c-0.068-1.026-0.068-2.121,0-3.147c0.342,0,1.369-0.068,2.464-0.821
		c1.026-0.684,1.299-2.258,1.299-2.258s-1.779,0-2.668,0.89c-0.479,0.412-0.89,1.232-1.095,1.779
		c0.137-1.163,0.273-2.327,0.547-3.422c0.41,0.069,1.369,0.138,2.463-0.341c1.163-0.479,1.643-1.916,1.643-1.916
		s-1.643-0.343-2.806,0.342c-0.41,0.273-0.89,0.889-1.163,1.3c0.273-1.094,0.685-2.121,1.094-3.079
		c0.274,0.069,1.232,0.41,2.532,0.137c1.163-0.275,1.916-1.575,1.916-1.575s-1.574-0.615-2.737-0.137
		c-0.615,0.206-1.3,0.959-1.573,1.368c0.479-1.094,1.094-2.121,1.709-3.078c0.206,0.136,1.164,0.547,2.464,0.547
		c1.231,0,2.122-1.163,2.122-1.163s-1.37-0.89-2.601-0.616c-0.684,0.137-1.505,0.821-1.916,1.095
		c0.821-1.232,1.711-2.259,2.669-3.147v0.068c0,0,0.068-0.068,0.137-0.206c2.258-2.052,4.448-3.284,6.09-4.038l0,0l0,0
		c0.753-0.342,1.369-0.546,1.848-0.752c0.068,0.069,0.958,0.547,1.779,0.274c1.026-0.343,1.573-1.096,1.573-1.096
		s-0.958-0.547-1.573-0.409c-0.822,0.136-1.437,0.82-1.574,1.025c-0.41,0.137-0.89,0.275-1.505,0.548
		c0.411-0.273,0.958-0.752,1.231-1.231c0.548-1.026,0.137-2.532,0.137-2.532s-1.301,0.548-1.642,1.643
		c-0.411,1.163-0.205,2.053-0.137,2.325c-0.889,0.343-1.847,0.821-2.942,1.506c0.342-0.342,0.822-0.89,0.958-1.369
		c0.41-1.231-0.274-2.6-0.274-2.6s-1.164,0.752-1.368,1.916c-0.138,1.164,0.136,2.053,0.205,2.326
		c-0.752,0.479-1.505,1.027-2.258,1.711c0.274-0.41,0.48-0.89,0.548-1.231c0.068-1.231-0.821-2.531-0.821-2.531
		s-1.027,0.958-1.027,2.189c0.068,1.026,0.411,1.847,0.616,2.189c-0.684,0.616-1.369,1.3-1.985,2.053
		c0.137-0.412,0.274-0.891,0.274-1.301c-0.068-1.231-1.232-2.326-1.232-2.326s-0.89,1.164-0.616,2.326
		c0.206,1.027,0.685,1.779,0.958,2.054c-0.547,0.753-1.026,1.574-1.505,2.394c0.069-0.409,0.137-0.82,0.069-1.163
		c-0.342-1.3-1.711-2.189-1.711-2.189s-0.684,1.369-0.206,2.463c0.411,1.026,1.027,1.642,1.3,1.917
		c-0.41,0.889-0.753,1.778-1.095,2.668c0-0.479,0-0.958-0.137-1.368c-0.547-1.232-2.052-1.917-2.052-1.917s-0.479,1.438,0.205,2.532
		c0.616,0.958,1.369,1.505,1.711,1.71c-0.274,0.959-0.479,1.985-0.684,3.079c-0.069-0.479-0.205-1.026-0.411-1.437
		c-0.616-1.163-2.327-1.573-2.327-1.573s-0.205,1.573,0.616,2.532c0.753,0.89,1.643,1.3,2.053,1.437
		c-0.068,0.89-0.136,1.779-0.136,2.738c-0.138-0.479-0.343-0.958-0.616-1.301C1.779,147.565,0,147.43,0,147.43
		s0.069,1.574,1.095,2.395c0.958,0.752,1.847,0.957,2.258,1.025c0.068,0.891,0.205,1.779,0.411,2.738
		c-0.206-0.412-0.547-0.891-0.89-1.094c-1.026-0.824-2.805-0.686-2.805-0.686s0.342,1.574,1.505,2.191
		c1.027,0.613,2.053,0.682,2.463,0.682c0.205,0.822,0.479,1.643,0.752,2.395c-0.273-0.342-0.615-0.684-0.958-0.82
		c-1.231-0.615-3.011-0.139-3.011-0.139s0.616,1.506,1.916,1.984c1.095,0.412,2.121,0.275,2.532,0.205
		c0.341,0.824,0.82,1.576,1.231,2.33c-0.342-0.275-0.821-0.615-1.231-0.686c-1.301-0.48-3.011,0.342-3.011,0.342
		s0.889,1.439,2.258,1.643c1.232,0.205,2.19-0.068,2.668-0.203c0.479,0.684,1.026,1.367,1.574,1.98
		c-0.411-0.203-0.889-0.477-1.301-0.477c-1.368-0.207-2.941,0.887-2.941,0.887s1.163,1.234,2.6,1.234
		c1.231-0.068,2.189-0.48,2.6-0.686c0.684,0.686,1.369,1.301,2.053,1.848c-0.479-0.205-1.095-0.342-1.574-0.342
		c-1.437,0.068-2.805,1.504-2.805,1.504s1.436,1.096,2.805,0.754c1.3-0.273,2.121-0.889,2.532-1.162
		c0.684,0.477,1.368,0.957,2.121,1.369c-0.479-0.07-0.959-0.139-1.369-0.07c-1.505,0.342-2.601,1.984-2.601,1.984
		s1.575,0.822,2.943,0.273c1.163-0.479,1.915-1.164,2.258-1.572c0.752,0.34,1.437,0.613,2.189,0.889c-0.479,0-0.958,0.068-1.3,0.205
		c-1.368,0.615-2.258,2.465-2.258,2.465s1.779,0.545,3.011-0.275c1.095-0.686,1.779-1.574,2.052-2.053
		c1.848,0.342,3.353,0.822,4.585,1.367c-2.189,1.164-3.147,2.26-3.147,2.26l0.821,0.752c0,0,1.027-1.299,3.354-2.461
		c2.258,1.229,3.284,2.461,3.284,2.461l0.821-0.752c0,0-0.89-1.096-3.147-2.26c1.231-0.545,2.737-1.025,4.585-1.367
		c0.273,0.479,0.889,1.367,2.053,2.053c1.231,0.82,3.011,0.275,3.011,0.275s-0.821-1.85-2.258-2.465
		c-0.342-0.137-0.89-0.205-1.3-0.205c0.753-0.205,1.505-0.549,2.258-0.889c0.341,0.408,1.094,1.094,2.326,1.572
		c1.368,0.549,2.943-0.273,2.943-0.273s-1.095-1.643-2.6-1.984c-0.41-0.068-1.027,0-1.506,0.07c0.753-0.412,1.438-0.893,2.19-1.369
		c0.342,0.34,1.231,0.957,2.532,1.162c1.368,0.342,2.805-0.754,2.805-0.754s-1.369-1.436-2.805-1.504
		c-0.548,0-1.163,0.205-1.642,0.41c0.752-0.547,1.436-1.23,2.12-1.916c0.411,0.273,1.37,0.686,2.601,0.754
		c1.437,0,2.6-1.232,2.6-1.232s-1.574-1.094-3.011-0.957c-0.41,0.068-0.957,0.273-1.368,0.547c0.548-0.615,1.163-1.301,1.643-2.051
		c0.41,0.135,1.437,0.477,2.737,0.271c1.369-0.203,2.258-1.643,2.258-1.643s-1.71-0.822-3.011-0.34
		c-0.479,0.135-1.027,0.545-1.437,0.887c0.547-0.82,0.958-1.641,1.368-2.531c0.411,0.068,1.438,0.205,2.668-0.207
		c1.301-0.479,1.916-1.982,1.916-1.982s-1.779-0.479-3.01,0.137c-0.479,0.137-0.821,0.547-1.163,0.959
		c0.342-0.822,0.616-1.711,0.821-2.602c0.411,0,1.437-0.068,2.531-0.682c1.164-0.617,1.506-2.191,1.506-2.191
		s-1.779-0.139-2.806,0.686c-0.411,0.27-0.753,0.818-1.026,1.299c0.205-0.959,0.41-1.916,0.479-2.875
		C47.761,150.781,48.651,150.576,49.609,149.824z"/>
	<path fill="#072605" d="M33.461,132.17c0,0,1.231,0.751,2.325,0.41c1.369-0.41,2.054-1.299,2.054-1.299s-1.368-0.548-2.258-0.48
		C34.418,130.937,33.461,132.17,33.461,132.17z"/>
	<path fill="#072605" d="M32.298,129.295c-1.095,0.343-1.779,1.711-1.779,1.711s1.299,0.479,2.326,0
		c1.164-0.684,1.71-1.643,1.71-1.643S33.118,129.022,32.298,129.295z"/>
</g>
</svg>
